<svg width="320" height="20" viewBox="0 0 320 20" fill="none" xmlns="http://www.w3.org/2000/svg">
<g filter="url(#filter0_d)">
<path d="M2.5 17.5V15H0V2.5H2.5V0H15V2.5H17.5V15H15V17.5H2.5ZM5 15H12.5V2.5H5V15ZM27.5 17.5V2.5H22.5V0H37.5V2.5H32.5V17.5H27.5ZM40 17.5V0H57.5V17.5H52.5V2.5H45V17.5H40ZM60 17.5V0H75V2.5H77.5V10H75V12.5H65V17.5H60ZM65 10H72.5V2.5H65V10ZM80 17.5V5H82.5V2.5H85V0H92.5V2.5H95V5H97.5V17.5H92.5V12.5H85V17.5H80ZM85 10H92.5V5H90V2.5H87.5V5H85V10ZM100 17.5V0H115V2.5H117.5V7.5H115V10H117.5V15H115V17.5H100ZM105 7.5H112.5V2.5H105V7.5ZM105 15H112.5V10H105V15ZM120 17.5V0H125V10H127.5V7.5H130V5H132.5V0H137.5V17.5H132.5V10H130V12.5H127.5V15H125V17.5H120ZM147.5 17.5V2.5H142.5V0H157.5V2.5H152.5V17.5H147.5ZM160 17.5V0H165V5H175V7.5H177.5V15H175V17.5H160ZM165 15H172.5V7.5H165V15ZM202.5 17.5V15H200V12.5H205V15H212.5V10H205V7.5H212.5V2.5H205V5H200V2.5H202.5V0H215V2.5H217.5V7.5H215V10H217.5V15H215V17.5H202.5ZM220 17.5V5H222.5V2.5H225V0H232.5V2.5H235V5H237.5V17.5H232.5V12.5H225V17.5H220ZM225 10H232.5V5H230V2.5H227.5V5H225V10ZM240 17.5V15H242.5V12.5H245V10H240V2.5H242.5V0H257.5V17.5H252.5V12.5H247.5V17.5H240ZM247.5 10H252.5V2.5H245V7.5H247.5V10ZM260 17.5V0H275V2.5H277.5V7.5H275V10H277.5V15H275V17.5H260ZM265 7.5H272.5V2.5H265V7.5ZM265 15H272.5V10H265V15ZM287.5 5H290V7.5H292.5V10H295V15H297.5V17.5H292.5V15H290V10H285V17.5H280V0H285V7.5H287.5V5ZM297.5 0V2.5H295V5H290V2.5H292.5V0H297.5ZM302.5 17.5V15H300V12.5H305V15H312.5V10H302.5V7.5H300V0H305V7.5H312.5V0H317.5V15H315V17.5H302.5Z" fill="white"/>
</g>
<defs>
<filter id="filter0_d" x="0" y="0" width="319.5" height="19.5" filterUnits="userSpaceOnUse" color-interpolation-filters="sRGB">
<feFlood flood-opacity="0" result="BackgroundImageFix"/>
<feColorMatrix in="SourceAlpha" type="matrix" values="0 0 0 0 0 0 0 0 0 0 0 0 0 0 0 0 0 0 127 0"/>
<feOffset dx="2" dy="2"/>
<feColorMatrix type="matrix" values="0 0 0 0 0 0 0 0 0 0 0 0 0 0 0 0 0 0 0.4 0"/>
<feBlend mode="normal" in2="BackgroundImageFix" result="effect1_dropShadow"/>
<feBlend mode="normal" in="SourceGraphic" in2="effect1_dropShadow" result="shape"/>
</filter>
</defs>
</svg>
