<svg width="443" height="80" viewBox="0 0 443 80" fill="none" xmlns="http://www.w3.org/2000/svg">
<path d="M44.1335 1.01831V41.4547C44.1335 43.3456 42.677 44.6547 40.9291 44.6547H36.1225C35.8312 44.6547 35.6855 44.9456 35.6855 45.091V78.9819C36.8508 78.9819 38.016 79.2729 39.3269 79.2729C61.0295 79.2729 78.6537 61.6729 78.6537 40.0001C78.6537 20.0729 63.6513 3.34558 44.1335 1.01831ZM43.2596 61.5274C40.4922 61.5274 38.453 59.2001 38.453 56.7274C38.453 53.9638 40.7835 51.9274 43.2596 51.9274C46.027 51.9274 48.0662 54.2547 48.0662 56.7274C48.3575 59.3456 46.027 61.5274 43.2596 61.5274ZM54.7663 61.5274C51.9989 61.5274 49.9597 59.2001 49.9597 56.7274C49.9597 53.9638 52.2902 51.9274 54.7663 51.9274C57.5338 51.9274 59.5729 54.2547 59.5729 56.7274C59.5729 59.2001 57.6794 61.5274 54.7663 61.5274ZM66.4187 61.5274C63.6513 61.5274 61.6121 59.2001 61.6121 56.7274C61.6121 53.9638 63.9426 51.9274 66.4187 51.9274C69.1862 51.9274 71.2253 54.2547 71.2253 56.7274C71.2253 59.2001 69.1862 61.5274 66.4187 61.5274Z" fill="#00B956"/>
<path d="M39.3268 0.872803C17.6242 0.872803 0 18.4728 0 40.1455C0 59.2001 13.2546 74.7637 31.0245 78.4001V43.0546C31.0245 41.4546 32.481 40.1455 33.9376 39.8546H38.7442C39.0355 39.8546 39.1812 39.5637 39.1812 39.4183L39.3268 0.872803ZM31.7528 33.1637C28.9853 33.1637 26.9461 30.8364 26.9461 28.3637C26.9461 25.6001 29.2766 23.5637 31.7528 23.5637C34.5202 23.5637 36.5594 25.891 36.5594 28.3637C36.5594 30.8364 34.3745 33.1637 31.7528 33.1637Z" fill="#00B956"/>
<path d="M433.032 22.2546V37.091H413.223V22.2546H403.173V61.5273H413.223V45.6728H433.032V61.5273H442.791V22.2546H433.032ZM269.316 26.7637C267.714 23.2728 264.509 21.3819 261.305 21.3819C258.101 21.3819 254.751 23.2728 253.294 26.7637L237.418 61.6728H247.905L251.4 53.3819H271.792L275.288 61.6728H285.775L269.316 26.7637ZM254.168 45.5273L260.14 31.1273C260.431 30.691 260.577 30.691 260.868 30.691C261.159 30.691 261.596 30.691 261.596 31.1273L267.568 45.5273H254.168ZM152.21 15.2728C147.549 15.2728 144.635 17.7455 142.451 22.691L129.779 52.2182L116.961 22.5455C114.922 17.7455 111.863 15.1273 107.202 15.1273C102.833 15.1273 98.4629 18.0364 98.4629 24.8728V61.3819H108.222V26.1819L121.185 55.4182C122.787 59.6364 125.846 62.1091 129.779 62.1091C134.003 62.1091 136.77 59.6364 138.372 55.4182L151.336 26.1819V61.8182H161.094V25.3091C160.949 18.4728 156.579 15.2728 152.21 15.2728ZM178.282 53.2364C177.845 53.2364 177.262 52.8 177.262 52.2182V45.2364H201.732V37.2364H177.262V31.2728C177.262 30.8364 177.699 30.2546 178.282 30.2546H202.606V21.9637H173.475C169.979 21.9637 167.649 24.7273 167.649 27.7819V55.2728C167.649 58.1819 170.125 61.0909 173.475 61.0909H202.606V52.8H178.282V53.2364ZM219.065 61.5273V31.5637C219.065 31.1273 219.502 30.5455 220.085 30.5455H244.409V22.2546H215.278C211.782 22.2546 209.452 25.0182 209.452 28.0728V61.3819L219.065 61.5273ZM396.764 42.0364C396.764 28.3637 390.792 21.9637 375.935 21.9637H372.44C357.583 21.9637 351.611 28.5091 351.611 42.0364C351.611 55.4182 357.583 62.1091 372.44 62.1091H375.644C390.792 61.8182 396.764 55.4182 396.764 42.0364ZM375.644 53.8182H372.44C364.429 53.8182 361.079 50.1819 361.079 42.0364C361.079 34.1819 363.846 30.2546 372.44 30.2546H375.644C383.946 30.2546 387.005 34.1819 387.005 42.0364C387.005 50.0364 383.946 53.8182 375.644 53.8182ZM324.374 16.1455H304.856C290.29 16.1455 284.464 23.5637 284.464 36.2182C284.464 38.2546 284.755 40.1455 284.901 41.7455C286.503 50.7637 291.893 56.2909 305.438 56.2909H309.808V61.3819H319.567V56.2909H323.791C337.483 56.2909 342.872 50.7637 344.328 41.7455C344.62 40.1455 344.765 38.2546 344.765 36.2182C344.62 23.5637 338.648 16.1455 324.374 16.1455ZM309.517 48.1455H305.147C298.447 48.1455 296.117 45.6728 294.66 41.6C294.223 40.1455 294.223 38.1091 294.223 36.0728C294.223 27.7819 298.156 24.291 303.691 24.291H309.662V48.1455H309.517ZM334.569 42.0364C333.113 45.9637 330.637 48.5819 324.082 48.5819H319.713V24.5819H325.684C331.219 24.5819 335.152 28.0728 335.152 36.3637C335.006 38.5455 335.006 40.2909 334.569 42.0364Z" fill="#00B956"/>
</svg>
