<svg width="370" height="50" viewBox="0 0 370 50" fill="none" xmlns="http://www.w3.org/2000/svg">
<g clip-path="url(#clip0)">
<path d="M9.77378 13.6257V9.74941H56.7046V0H11.7805C4.38643 0 0 3.37706 0 11.6875C0 19.998 4.38643 23.3751 11.7805 23.3751C16.0394 23.3751 18.6104 24.0016 21.9321 26.248L30.0132 31.7492C35.4005 35.3759 39.3503 36.3743 45.6159 36.3743H47.6226V40.2506H0.686912V50H45.611C53.0051 50 57.3915 46.6278 57.3915 38.3125C57.3915 29.9971 53.0051 26.6249 45.611 26.6249C41.2883 26.6249 38.9087 26.0621 35.5232 23.752L27.3784 18.2508C21.9272 14.5654 18.0413 13.6257 11.7756 13.6257H9.77378ZM107.58 50H119.047V0H109.273V36.8735L73.8087 0H62.3422V50H72.116V13.1265L107.58 50ZM172.93 50H183.455V46.1237L159.663 21.3048L182.827 3.87627V0H172.052L135.964 27.1388V0H126.127V50H135.964V39.1347L151.356 27.5548L172.93 50ZM216.726 18.2508L208.581 23.752C205.195 26.0621 202.816 26.6249 198.493 26.6249H197.178V9.74941H234.335V13.6257H232.328C226.063 13.6257 222.177 14.5605 216.726 18.2508ZM233.58 50H244.104V46.1237L223.747 24.8874C226.377 23.5268 228.761 23.3751 232.328 23.3751C239.723 23.3751 244.109 19.998 244.109 11.6875C244.109 3.37706 239.723 0 232.328 0H197.178H187.404V9.74941V50H197.178V37.5V35.9387H198.493C204.759 35.9387 208.708 34.9403 214.096 31.3136L215.013 30.6872L233.58 50ZM296.363 50H306.137V0H296.363V19.3765H258.519V0H248.746V50H258.519V29.1259H296.363V50ZM359.834 13.6257H357.827C351.562 13.6257 344.982 18.8773 340.031 25.186L333.957 32.9385C331.013 36.6875 327.063 40.2506 324.183 40.2506H322.677V9.74941H359.834V13.6257ZM369.608 11.6875C369.608 3.37706 365.221 0 357.827 0H322.677H312.903V9.74941V50H317.604H322.677C329.693 50 335.395 45.7518 339.408 40.6274L346.052 32.1261C350.311 26.6885 353.568 23.3751 357.832 23.3751C365.221 23.3751 369.608 19.998 369.608 11.6875Z" fill="black"/>
</g>
<defs>
<clipPath id="clip0">
<rect width="369.608" height="50" fill="white"/>
</clipPath>
</defs>
</svg>
