<svg width="320" height="199" viewBox="0 0 320 199" fill="none" xmlns="http://www.w3.org/2000/svg"><g clip-path="url(#clip0)"><path fill="#53B561" d="M0 0h320v199H0z"/><path d="M-39 .625H.781v39.781H-39zm79.563 0h39.781v39.781H40.563zm79.562 0h39.781v39.781h-39.781zm79.563 0h39.781v39.781h-39.781zm79.562 0h39.781v39.781H279.25zM.781 40.406h39.781v39.781H.781zm79.563 0h39.781v39.781H80.344zm79.562 0h39.781v39.781h-39.781zm79.563 0h39.781v39.781h-39.781zm79.562 0h39.781v39.781h-39.781zM-39 80.188H.781v39.781H-39zm79.563 0h39.781v39.781H40.563zm79.562 0h39.781v39.781h-39.781zm79.563 0h39.781v39.781h-39.781zm79.562 0h39.781v39.781H279.25zM.781 119.969h39.781v39.781H.781zm79.563 0h39.781v39.781H80.344zm79.562 0h39.781v39.781h-39.781zm79.563 0h39.781v39.781h-39.781zm79.562 0h39.781v39.781h-39.781zM-39 159.75H.781v39.781H-39zm79.563 0h39.781v39.781H40.563zm79.562 0h39.781v39.781h-39.781zm79.563 0h39.781v39.781h-39.781zm79.562 0h39.781v39.781H279.25z" opacity=".4" fill="#167A4F" fill-opacity=".4"/></g><defs><clipPath id="clip0"><path fill="#fff" d="M0 0h320v199H0z"/></clipPath></defs></svg>