<svg width="1440" height="120" viewBox="0 0 1440 120" fill="#53B561" xmlns="http://www.w3.org/2000/svg"><path fill="#167A4F" fill-opacity=".4" d="M60 0h60v60H60zm120 0h60v60h-60zm120 0h60v60h-60zm120 0h60v60h-60zm120 0h60v60h-60zm120 0h60v60h-60zm120 0h60v60h-60zm120 0h60v60h-60zm120 0h60v60h-60zm120 0h60v60h-60zm120 0h60v60h-60zm120 0h60v60h-60zM0 60h60v60H0zm120 0h60v60h-60zm120 0h60v60h-60zm120 0h60v60h-60zm120 0h60v60h-60zm120 0h60v60h-60zm120 0h60v60h-60zm120 0h60v60h-60zm120 0h60v60h-60zm120 0h60v60h-60zm120 0h60v60h-60zm120 0h60v60h-60z"/></svg>