<svg width="1267" height="19" viewBox="0 0 1267 19" fill="none" xmlns="http://www.w3.org/2000/svg"><path d="M2.6 18.4v-2.6H0v-2.6h5.2v2.6H13v-5.2H2.6V8H0V2.8h2.6V.2h13v2.6h2.6v2.6H13V2.8H5.2V8h10.4v2.6h2.6v5.2h-2.6v2.6h-13zm18.2 0V.2H26v2.6h2.6v2.6h2.6V8h2.6V.2H39v18.2h-5.2v-5.2h-2.6v-2.6h-2.6V8H26v10.4h-5.2zm20.8 0V.2h18.2v2.6h-13V8h10.4v2.6H46.8v5.2h13v2.6H41.6zm20.8 0v-13H65V2.8h2.6V.2h7.8v2.6H78v2.6h2.6v13h-5.2v-5.2h-7.8v5.2h-5.2zm5.2-7.8h7.8V5.4h-2.6V2.8h-2.6v2.6h-2.6v5.2zm15.6 7.8V.2h5.2V8H91V5.4h2.6V2.8h2.6V.2h5.2v2.6h-2.6v2.6h-2.6V8h-2.6v2.6h2.6v2.6h2.6v2.6h2.6v2.6h-7.8v-2.6H91v-2.6h-2.6v5.2h-5.2zm20.8 0V.2h18.2v2.6h-13V8h10.4v2.6h-10.4v5.2h13v2.6H104zm20.8 0V.2h15.6v2.6h2.6v7.8h-5.2v2.6h2.6v2.6h2.6v2.6h-7.8v-2.6h-2.6v-2.6H130v5.2h-5.2zm5.2-7.8h5.2V8h2.6V2.8H130v7.8zm15.6 7.8V.2h5.2V8h7.8V.2h5.2v18.2h-5.2v-7.8h-7.8v7.8h-5.2zm20.8 0V.2h18.2v2.6h-13V8H182v2.6h-10.4v5.2h13v2.6h-18.2zm20.8 0v-13h2.6V2.8h2.6V.2h7.8v2.6h2.6v2.6h2.6v13h-5.2v-5.2h-7.8v5.2h-5.2zm5.2-7.8h7.8V5.4h-2.6V2.8H195v2.6h-2.6v5.2zm15.6 7.8V.2h13v2.6h2.6v2.6h2.6v7.8h-2.6v2.6H221v2.6h-13zm5.2-2.6h5.2v-2.6h2.6V5.4h-2.6V2.8h-5.2v13zm36.4 2.6v-5.2h2.6v-2.6h2.6V8h-2.6V5.4h-2.6V.2h5.2v5.2h2.6V8h2.6V5.4h2.6V.2h5.2v5.2h-2.6V8h-2.6v2.6h2.6v2.6h2.6v5.2h-5.2v-5.2H260v-2.6h-2.6v2.6h-2.6v5.2h-5.2zm41.6 0V.2h5.2v2.6h2.6v2.6h2.6V2.8h2.6V.2h5.2v18.2h-5.2V8h-2.6v5.2H299V8h-2.6v10.4h-5.2zm20.8 0V.2h18.2v2.6h-13V8h10.4v2.6h-10.4v5.2h13v2.6H312zm26 0v-2.6h-2.6v-2.6h-2.6V5.4h2.6V2.8h2.6V.2h13v2.6h-10.4v2.6H338v7.8h2.6v2.6h5.2v-5.2h-2.6V8h7.8v10.4h-13zm15.6 0v-13h2.6V2.8h2.6V.2h7.8v2.6h2.6v2.6h2.6v13h-5.2v-5.2h-7.8v5.2h-5.2zm5.2-7.8h7.8V5.4H364V2.8h-2.6v2.6h-2.6v5.2zm15.6 7.8V.2h18.2v2.6h-13V8H390v2.6h-10.4v7.8h-5.2zm23.4 0v-2.6h-2.6v-13h2.6V.2h13v2.6h2.6v13h-2.6v2.6h-13zm2.6-2.6h7.8v-13h-7.8v13zm15.6 2.6V.2h5.2v2.6h2.6v2.6h2.6V8h2.6V.2h5.2v18.2H429v-5.2h-2.6v-2.6h-2.6V8h-2.6v10.4H416zm41.6 0v-5.2h2.6v-2.6h2.6V8h-2.6V5.4h-2.6V.2h5.2v5.2h2.6V8h2.6V5.4h2.6V.2h5.2v5.2h-2.6V8h-2.6v2.6h2.6v2.6h2.6v5.2h-5.2v-5.2H468v-2.6h-2.6v2.6h-2.6v5.2h-5.2zm44.2 0v-2.6h-2.6v-2.6h5.2v2.6h7.8v-5.2h-10.4V8h-2.6V2.8h2.6V.2h13v2.6h2.6v2.6h-5.2V2.8h-7.8V8h10.4v2.6h2.6v5.2h-2.6v2.6h-13zm18.2 0V.2h5.2v2.6h2.6v2.6h2.6V8h2.6V.2h5.2v18.2H533v-5.2h-2.6v-2.6h-2.6V8h-2.6v10.4H520zm20.8 0V.2H559v2.6h-13V8h10.4v2.6H546v5.2h13v2.6h-18.2zm20.8 0v-13h2.6V2.8h2.6V.2h7.8v2.6h2.6v2.6h2.6v13h-5.2v-5.2h-7.8v5.2h-5.2zm5.2-7.8h7.8V5.4H572V2.8h-2.6v2.6h-2.6v5.2zm15.6 7.8V.2h5.2V8h2.6V5.4h2.6V2.8h2.6V.2h5.2v2.6H598v2.6h-2.6V8h-2.6v2.6h2.6v2.6h2.6v2.6h2.6v2.6h-7.8v-2.6h-2.6v-2.6h-2.6v5.2h-5.2zm20.8 0V.2h18.2v2.6h-13V8h10.4v2.6h-10.4v5.2h13v2.6h-18.2zm20.8 0V.2h15.6v2.6h2.6v7.8H637v2.6h2.6v2.6h2.6v2.6h-7.8v-2.6h-2.6v-2.6h-2.6v5.2H624zm5.2-7.8h5.2V8h2.6V2.8h-7.8v7.8zm15.6 7.8V.2h5.2V8h7.8V.2h5.2v18.2h-5.2v-7.8H650v7.8h-5.2zm20.8 0V.2h18.2v2.6h-13V8h10.4v2.6h-10.4v5.2h13v2.6h-18.2zm20.8 0v-13h2.6V2.8h2.6V.2h7.8v2.6h2.6v2.6h2.6v13h-5.2v-5.2h-7.8v5.2h-5.2zm5.2-7.8h7.8V5.4h-2.6V2.8h-2.6v2.6h-2.6v5.2zm15.6 7.8V.2h13v2.6h2.6v2.6h2.6v7.8h-2.6v2.6h-2.6v2.6h-13zm5.2-2.6h5.2v-2.6h2.6V5.4h-2.6V2.8h-5.2v13zm36.4 2.6v-5.2h2.6v-2.6h2.6V8h-2.6V5.4h-2.6V.2h5.2v5.2h2.6V8h2.6V5.4h2.6V.2h5.2v5.2h-2.6V8h-2.6v2.6h2.6v2.6h2.6v5.2h-5.2v-5.2h-2.6v-2.6h-2.6v2.6H754v5.2h-5.2zm41.6 0V.2h5.2v2.6h2.6v2.6h2.6V2.8h2.6V.2h5.2v18.2h-5.2V8h-2.6v5.2h-2.6V8h-2.6v10.4h-5.2zm20.8 0V.2h18.2v2.6h-13V8h10.4v2.6h-10.4v5.2h13v2.6h-18.2zm26 0v-2.6h-2.6v-2.6H832V5.4h2.6V2.8h2.6V.2h13v2.6h-10.4v2.6h-2.6v7.8h2.6v2.6h5.2v-5.2h-2.6V8h7.8v10.4h-13zm15.6 0v-13h2.6V2.8h2.6V.2h7.8v2.6h2.6v2.6h2.6v13h-5.2v-5.2H858v5.2h-5.2zm5.2-7.8h7.8V5.4h-2.6V2.8h-2.6v2.6H858v5.2zm15.6 7.8V.2h18.2v2.6h-13V8h10.4v2.6h-10.4v7.8h-5.2zm23.4 0v-2.6h-2.6v-13h2.6V.2h13v2.6h2.6v13H910v2.6h-13zm2.6-2.6h7.8v-13h-7.8v13zm15.6 2.6V.2h5.2v2.6h2.6v2.6h2.6V8h2.6V.2h5.2v18.2h-5.2v-5.2h-2.6v-2.6H923V8h-2.6v10.4h-5.2zm41.6 0v-5.2h2.6v-2.6h2.6V8h-2.6V5.4h-2.6V.2h5.2v5.2h2.6V8h2.6V5.4h2.6V.2h5.2v5.2h-2.6V8h-2.6v2.6h2.6v2.6h2.6v5.2h-5.2v-5.2h-2.6v-2.6h-2.6v2.6H962v5.2h-5.2zm44.2 0v-2.6h-2.6v-2.6h5.2v2.6h7.8v-5.2H1001V8h-2.6V2.8h2.6V.2h13v2.6h2.6v2.6h-5.2V2.8h-7.8V8h10.4v2.6h2.6v5.2h-2.6v2.6h-13zm18.2 0V.2h5.2v2.6h2.6v2.6h2.6V8h2.6V.2h5.2v18.2h-5.2v-5.2h-2.6v-2.6h-2.6V8h-2.6v10.4h-5.2zm20.8 0V.2h18.2v2.6h-13V8h10.4v2.6h-10.4v5.2h13v2.6H1040zm20.8 0v-13h2.6V2.8h2.6V.2h7.8v2.6h2.6v2.6h2.6v13h-5.2v-5.2h-7.8v5.2h-5.2zm5.2-7.8h7.8V5.4h-2.6V2.8h-2.6v2.6h-2.6v5.2zm15.6 7.8V.2h5.2V8h2.6V5.4h2.6V2.8h2.6V.2h5.2v2.6h-2.6v2.6h-2.6V8h-2.6v2.6h2.6v2.6h2.6v2.6h2.6v2.6h-7.8v-2.6h-2.6v-2.6h-2.6v5.2h-5.2zm20.8 0V.2h18.2v2.6h-13V8h10.4v2.6h-10.4v5.2h13v2.6h-18.2zm20.8 0V.2h15.6v2.6h2.6v7.8h-5.2v2.6h2.6v2.6h2.6v2.6h-7.8v-2.6h-2.6v-2.6h-2.6v5.2h-5.2zm5.2-7.8h5.2V8h2.6V2.8h-7.8v7.8zm15.6 7.8V.2h5.2V8h7.8V.2h5.2v18.2h-5.2v-7.8h-7.8v7.8h-5.2zm20.8 0V.2h18.2v2.6h-13V8h10.4v2.6H1170v5.2h13v2.6h-18.2zm20.8 0v-13h2.6V2.8h2.6V.2h7.8v2.6h2.6v2.6h2.6v13h-5.2v-5.2h-7.8v5.2h-5.2zm5.2-7.8h7.8V5.4h-2.6V2.8h-2.6v2.6h-2.6v5.2zm15.6 7.8V.2h13v2.6h2.6v2.6h2.6v7.8h-2.6v2.6h-2.6v2.6h-13zm5.2-2.6h5.2v-2.6h2.6V5.4h-2.6V2.8h-5.2v13zm36.4 2.6v-5.2h2.6v-2.6h2.6V8h-2.6V5.4h-2.6V.2h5.2v5.2h2.6V8h2.6V5.4h2.6V.2h5.2v5.2h-2.6V8h-2.6v2.6h2.6v2.6h2.6v5.2h-5.2v-5.2h-2.6v-2.6h-2.6v2.6h-2.6v5.2h-5.2z" fill="#6F0792"/></svg>