<svg xmlns="http://www.w3.org/2000/svg" xmlns:xlink="http://www.w3.org/1999/xlink"><defs><filter id="filter0_d" x="0" y="0" width="319.5" height="19.5" filterUnits="userSpaceOnUse" color-interpolation-filters="sRGB"><feFlood flood-opacity="0" result="BackgroundImageFix"/><feColorMatrix in="SourceAlpha" values="0 0 0 0 0 0 0 0 0 0 0 0 0 0 0 0 0 0 127 0"/><feOffset dx="2" dy="2"/><feColorMatrix values="0 0 0 0 0 0 0 0 0 0 0 0 0 0 0 0 0 0 0.4 0"/><feBlend in2="BackgroundImageFix" result="effect1_dropShadow"/><feBlend in="SourceGraphic" in2="effect1_dropShadow" result="shape"/></filter><clipPath id="clip0"><path fill="#fff" d="M0 0h369.608v50H0z"/></clipPath></defs><symbol id="button-text" viewBox="0 0 320 20"><g filter="url(#filter0_d)"><path d="M2.5 17.5V15H0V2.5h2.5V0H15v2.5h2.5V15H15v2.5H2.5zM5 15h7.5V2.5H5V15zm22.5 2.5v-15h-5V0h15v2.5h-5v15h-5zm12.5 0V0h17.5v17.5h-5v-15H45v15h-5zm20 0V0h15v2.5h2.5V10H75v2.5H65v5h-5zm5-7.5h7.5V2.5H65V10zm15 7.5V5h2.5V2.5H85V0h7.5v2.5H95V5h2.5v12.5h-5v-5H85v5h-5zm5-7.5h7.5V5H90V2.5h-2.5V5H85v5zm15 7.5V0h15v2.5h2.5v5H115V10h2.5v5H115v2.5h-15zm5-10h7.5v-5H105v5zm0 7.5h7.5v-5H105v5zm15 2.5V0h5v10h2.5V7.5h2.5V5h2.5V0h5v17.5h-5V10H130v2.5h-2.5V15H125v2.5h-5zm27.5 0v-15h-5V0h15v2.5h-5v15h-5zm12.5 0V0h5v5h10v2.5h2.5V15H175v2.5h-15zm5-2.5h7.5V7.5H165V15zm37.5 2.5V15H200v-2.5h5V15h7.5v-5H205V7.5h7.5v-5H205V5h-5V2.5h2.5V0H215v2.5h2.5v5H215V10h2.5v5H215v2.5h-12.5zm17.5 0V5h2.5V2.5h2.5V0h7.5v2.5h2.5V5h2.5v12.5h-5v-5H225v5h-5zm5-7.5h7.5V5H230V2.5h-2.5V5H225v5zm15 7.5V15h2.5v-2.5h2.5V10h-5V2.5h2.5V0h15v17.5h-5v-5h-5v5H240zm7.5-7.5h5V2.5H245v5h2.5V10zm12.5 7.5V0h15v2.5h2.5v5H275V10h2.5v5H275v2.5h-15zm5-10h7.5v-5H265v5zm0 7.5h7.5v-5H265v5zm22.5-10h2.5v2.5h2.5V10h2.5v5h2.5v2.5h-5V15H290v-5h-5v7.5h-5V0h5v7.5h2.5V5zm10-5v2.5H295V5h-5V2.5h2.5V0h5zm5 17.5V15H300v-2.5h5V15h7.5v-5h-10V7.5H300V0h5v7.5h7.5V0h5v15H315v2.5h-12.5z" fill="#fff"/></g></symbol><symbol id="cross" viewBox="0 0 29 31"><path d="M28.98.377L14.1 10.757 0 1.037v8.52l8.94 5.94-8.94 6v8.52l14.1-9.66 14.88 10.26v-8.46l-9.78-6.66 9.78-6.6V.377z" fill="#000"/></symbol><symbol id="full-snake" viewBox="0 0 341 60"><path fill="#6A247D" stroke="#4C0E5C" d="M285.955 56.772H232.41V3.227h53.545z"/><path opacity=".7" fill="#4C0E5C" d="M286.455 11.972h-9.245V2.727h9.245zm-17.58 8.32h-9.245V2.726h9.245zm-9.246 0h-9.245V2.726h9.245zm-18.475-8.32h-9.245V2.727h9.245zm-9.244 36.056h9.245v9.245h-9.245zm18.49-8.321h9.245v17.566H250.4zm9.245 0h9.245v17.566h-9.245zm17.566 8.321h9.245v9.245h-9.245z"/><path fill="#4C0E5C" d="M286.455 57.272H231.91v-1.849h54.545zm0-52.696H231.91V2.727h54.545z"/><path fill="#6A247D" stroke="#4C0E5C" d="M231.408 56.772h-53.545V3.227h53.545z"/><path opacity=".7" fill="#4C0E5C" d="M231.908 11.972h-9.245V2.727h9.245zm-17.58 8.32h-9.245V2.726h9.245zm-9.246 0h-9.245V2.726h9.245zm-18.475-8.32h-9.245V2.727h9.245zm-9.244 36.056h9.245v9.245h-9.245zm18.491-8.321h9.245v17.566h-9.245z"/><path opacity=".7" fill="#4C0E5C" d="M205.098 39.707h9.245v17.566h-9.245zm17.566 8.321h9.245v9.245h-9.245z"/><path fill="#4C0E5C" d="M231.908 57.272h-54.545v-1.849h54.545zm0-52.696h-54.545V2.727h54.545z"/><path fill="#6A247D" stroke="#4C0E5C" d="M176.863 56.772h-53.545V3.227h53.545z"/><path opacity=".7" fill="#4C0E5C" d="M177.363 11.972h-9.245V2.727h9.245zm-17.58 8.32h-9.245V2.726h9.245zm-9.246 0h-9.245V2.726h9.245zm-18.475-8.32h-9.245V2.727h9.245zm-9.244 36.056h9.245v9.245h-9.245zm18.489-8.321h9.245v17.566h-9.245zm9.246 0h9.245v17.566h-9.245zm17.566 8.321h9.245v9.245h-9.245z"/><path fill="#4C0E5C" d="M177.363 57.272h-54.545v-1.849h54.545zm0-52.696h-54.545V2.727h54.545z"/><path fill="#6A247D" stroke="#4C0E5C" d="M122.318 56.772H68.773V3.227h53.545z"/><path opacity=".7" fill="#4C0E5C" d="M122.818 11.972h-9.245V2.727h9.245zm-17.58 8.32h-9.245V2.726h9.245zm-9.246 0h-9.245V2.726h9.245zm-18.475-8.32h-9.245V2.727h9.245zm-9.244 36.056h9.245v9.245h-9.245zm18.489-8.321h9.245v17.566h-9.245zm9.246 0h9.245v17.566h-9.245zm17.564 8.321h9.245v9.245h-9.245z"/><path fill="#4C0E5C" d="M122.818 57.272H68.273v-1.849h54.545zm0-52.696H68.273V2.727h54.545z"/><path d="M22.819 12.895h1V3.727h43.454v52.546H23.82v-8.71h-9.091V12.895h8.09z" fill="#6A247D" stroke="#4C0E5C" stroke-width="2"/><path opacity=".7" fill="#4C0E5C" d="M68.274 11.972h-9.245V2.727h9.245zm-9.247 36.056h9.245v9.245h-9.245zM36.3 25.3h9.246v9.245H36.3V25.3z"/><path fill="#4C0E5C" d="M68.274 57.272H22.819v-1.818h45.455zm0-52.726H22.819V2.728h45.455z"/><path d="M331.91 47.105h-1v9.168h-43.455V3.727h43.455v8.71h9.091v34.668h-8.091z" fill="#6A247D" stroke="#4C0E5C" stroke-width="2"/><path opacity=".7" fill="#4C0E5C" d="M177.363 11.973h-9.245V2.728h9.245zm-9.244 36.055h9.245v9.245h-9.245z"/><path fill="#4C0E5C" d="M177.363 57.272h-45.455v-1.818h45.455zm0-52.726h-45.455V2.728h45.455z"/><path opacity=".7" fill="#4C0E5C" d="M323.42 20.292h-9.245V2.726h9.245zm-9.246 0h-9.245V2.726h9.245zm-18.475-8.319h-9.245V2.728h9.245zm-9.244 36.055h9.245v9.245h-9.245zm18.49-8.321h9.245v17.566h-9.245z"/><path opacity=".7" fill="#4C0E5C" d="M314.189 39.707h9.245v17.566h-9.245z"/><path fill="#4C0E5C" stroke="#4C0E5C" d="M53.226 59.5H29.68V46.864h23.546zm0-46.363H29.68V.5h23.546z"/><path d="M13.727 25.454v9.091H.09L3.727 30 .09 25.454h13.637z" fill="#4C0E5C"/></symbol><symbol id="megafon" viewBox="0 0 443 80"><path d="M44.133 1.018v40.437c0 1.89-1.456 3.2-3.204 3.2h-4.806c-.292 0-.438.29-.438.436v33.89c1.166 0 2.331.292 3.642.292 21.703 0 39.327-17.6 39.327-39.273 0-19.927-15.003-36.654-34.52-38.982zm-.873 60.51c-2.768 0-4.807-2.328-4.807-4.8 0-2.764 2.33-4.8 4.807-4.8 2.767 0 4.806 2.327 4.806 4.8.291 2.618-2.039 4.8-4.806 4.8zm11.506 0c-2.767 0-4.806-2.328-4.806-4.8 0-2.764 2.33-4.8 4.806-4.8 2.768 0 4.807 2.327 4.807 4.8 0 2.472-1.894 4.8-4.807 4.8zm11.653 0c-2.768 0-4.807-2.328-4.807-4.8 0-2.764 2.33-4.8 4.807-4.8 2.767 0 4.806 2.327 4.806 4.8 0 2.472-2.039 4.8-4.806 4.8z" fill="#00B956"/><path d="M39.327.873C17.624.873 0 18.473 0 40.146 0 59.2 13.255 74.763 31.024 78.4V43.055c0-1.6 1.457-2.91 2.914-3.2h4.806c.291 0 .437-.291.437-.437L39.327.873zm-7.574 32.29c-2.768 0-4.807-2.327-4.807-4.8 0-2.763 2.33-4.8 4.807-4.8 2.767 0 4.806 2.328 4.806 4.8 0 2.473-2.184 4.8-4.806 4.8zm401.279-10.908V37.09h-19.809V22.255h-10.05v39.272h10.05V45.673h19.809v15.854h9.759V22.255h-9.759zm-163.716 4.509c-1.602-3.491-4.807-5.382-8.011-5.382a8.734 8.734 0 00-8.011 5.382l-15.876 34.909h10.487l3.495-8.291h20.392l3.496 8.29h10.487l-16.459-34.908zm-15.148 18.763l5.972-14.4c.291-.436.437-.436.728-.436s.728 0 .728.436l5.972 14.4h-13.4zM152.21 15.273c-4.661 0-7.575 2.473-9.759 7.418l-12.672 29.527-12.818-29.673c-2.039-4.8-5.098-7.418-9.759-7.418-4.369 0-8.74 2.91-8.74 9.746v36.509h9.76v-35.2l12.963 29.236c1.602 4.218 4.661 6.691 8.594 6.691 4.224 0 6.991-2.473 8.593-6.69l12.964-29.237v35.636h9.758V25.31c-.145-6.836-4.515-10.036-8.884-10.036zm26.072 37.963c-.437 0-1.02-.436-1.02-1.018v-6.982h24.47v-8h-24.47v-5.963c0-.437.437-1.018 1.02-1.018h24.324v-8.291h-29.131c-3.496 0-5.826 2.763-5.826 5.818v27.49c0 2.91 2.476 5.819 5.826 5.819h29.131V52.8h-24.324v.436zm40.783 8.291V31.564c0-.437.437-1.018 1.02-1.018h24.324v-8.291h-29.131c-3.496 0-5.826 2.763-5.826 5.818v33.309l9.613.145zm177.699-19.49c0-13.673-5.972-20.073-20.829-20.073h-3.495c-14.857 0-20.829 6.545-20.829 20.072 0 13.382 5.972 20.073 20.829 20.073h3.204c15.148-.29 21.12-6.69 21.12-20.073zm-21.12 11.781h-3.204c-8.011 0-11.361-3.636-11.361-11.782 0-7.854 2.767-11.781 11.361-11.781h3.204c8.302 0 11.361 3.927 11.361 11.781 0 8-3.059 11.782-11.361 11.782zm-51.27-37.672h-19.518c-14.566 0-20.392 7.418-20.392 20.072 0 2.037.291 3.927.437 5.527 1.602 9.019 6.992 14.546 20.537 14.546h4.37v5.09h9.759v-5.09h4.224c13.692 0 19.081-5.527 20.537-14.545.292-1.6.437-3.491.437-5.528-.145-12.654-6.117-20.073-20.391-20.073zm-14.857 32h-4.37c-6.7 0-9.03-2.473-10.487-6.546-.437-1.455-.437-3.49-.437-5.527 0-8.291 3.933-11.782 9.468-11.782h5.971v23.854h-.145zm25.052-6.11c-1.456 3.928-3.932 6.546-10.487 6.546h-4.369v-24h5.971c5.535 0 9.468 3.49 9.468 11.782-.146 2.181-.146 3.927-.583 5.672z" fill="#00B956"/></symbol><symbol id="snake-header" viewBox="0 0 60 261"><path fill="#6A247D" stroke="#4C0E5C" d="M56.773-24.954V28.59H3.228v-53.545z"/><path opacity=".7" fill="#4C0E5C" d="M20.293-7.874v9.245H2.727v-9.245zm0 9.245v9.245H2.727V1.371zm-8.321 18.475v9.245H2.727v-9.245zm36.055 9.245v-9.245h9.245v9.245zM39.707 10.6V1.357h17.566V10.6zm0-9.244v-9.245h17.566v9.245z"/><path fill="#4C0E5C" d="M57.273-25.454V29.09h-1.85v-54.545zm-52.697-.001V29.09H2.727v-54.545z"/><path fill="#6A247D" stroke="#4C0E5C" d="M56.772 29.591v53.545H3.227V29.591z"/><path opacity=".7" fill="#4C0E5C" d="M11.971 29.09v9.246H2.726V29.09zm8.322 17.582v9.245H2.727v-9.245z"/><path opacity=".7" fill="#4C0E5C" d="M20.293 55.916v9.245H2.727v-9.245zm-8.321 18.476v9.245H2.727v-9.245zm36.056 9.244v-9.245h9.245v9.245zm-8.321-18.489v-9.245h17.566v9.245zm0-9.246v-9.245h17.566v9.245zm8.321-17.565v-9.245h9.245v9.245z"/><path fill="#4C0E5C" d="M57.272 29.091v54.545h-1.849V29.091zM4.576 29.09v54.545h-1.85V29.09z"/><path fill="#6A247D" stroke="#4C0E5C" d="M56.773 84.137v53.545H3.228V84.137z"/><path opacity=".7" fill="#4C0E5C" d="M11.972 83.637v9.245H2.727v-9.245zm8.321 17.581v9.245H2.727v-9.245z"/><path opacity=".7" fill="#4C0E5C" d="M20.293 110.462v9.245H2.727v-9.245zm-8.321 18.475v9.245H2.727v-9.245zm36.055 9.245v-9.245h9.245v9.245zm-8.32-18.49v-9.245h17.566v9.245zm0-9.245v-9.245h17.566v9.245zm8.321-17.565v-9.245h9.245v9.245z"/><path fill="#4C0E5C" d="M57.273 83.637v54.545h-1.849V83.637zm-52.696-.001v54.545h-1.85V83.636z"/><path fill="#6A247D" stroke="#4C0E5C" d="M56.773 138.682v53.545H3.228v-53.545z"/><path opacity=".7" fill="#4C0E5C" d="M11.972 138.181v9.245H2.727v-9.245zm8.321 17.581v9.245H2.727v-9.245zm0 9.246v9.245H2.727v-9.245zm-8.321 18.474v9.245H2.727v-9.245zm36.055 9.245v-9.245h9.245v9.245zm-8.32-18.49v-9.245h17.566v9.245z"/><path opacity=".7" fill="#4C0E5C" d="M39.707 164.993v-9.245h17.566v9.245zm8.32-17.567v-9.245h9.245v9.245z"/><path fill="#4C0E5C" d="M57.273 138.182v54.545h-1.85v-54.545zm-52.697-.002v54.546H2.727V138.18z"/><path d="M12.894 238.182v-1H3.727v-43.455h52.546v43.455h-8.71v9.091H12.895v-8.091z" fill="#6A247D" stroke="#4C0E5C" stroke-width="2"/><path opacity=".7" fill="#4C0E5C" d="M11.972 192.727v9.245H2.727v-9.245zm36.055 9.245v-9.245h9.245v9.245zM25.3 224.7v-9.245h9.245v9.245H25.3z"/><path fill="#4C0E5C" d="M57.273 192.727v45.455h-1.819v-45.454zm-52.728 0v45.455H2.727v-45.455z"/><path opacity=".7" fill="#4C0E5C" d="M11.972 83.637v9.245H2.727v-9.245zm36.056 9.245v-9.245h9.245v9.245z"/><path fill="#4C0E5C" d="M57.273 83.637v45.455h-1.818V83.637zm-52.728 0v45.455H2.727V83.637z"/><path fill="#4C0E5C" stroke="#4C0E5C" d="M59.5 207.773v23.546H46.864v-23.546zm-46.363 0v23.546H.5v-23.546z"/><path d="M25.454 247.273h9.09v13.637L30 257.273l-4.546 3.637v-13.637z" fill="#4C0E5C"/></symbol><symbol id="snake-left-mob" viewBox="0 0 134 46"><path fill="#6A247D" stroke="#4C0E5C" d="M-.825 2.578h40.558v40.558H-.825z"/><path opacity=".7" fill="#4C0E5C" d="M-1.325 36.593h7.044v7.044h-7.044zm13.394-6.339h7.044v13.383h-7.044zm7.044 0h7.044v13.383h-7.044zm14.077 6.339h7.044v7.044H33.19zm7.044-27.471H33.19V2.078h7.044zM26.146 15.46h-7.044V2.079h7.044zm-7.045 0h-7.044V2.079h7.044zM5.719 9.122h-7.044V2.078h7.043z"/><path fill="#4C0E5C" d="M-1.325 2.078h41.558v1.409H-1.325zm0 40.149h41.558v1.409H-1.325z"/><path fill="#6A247D" stroke="#4C0E5C" d="M40.734 2.578h40.558v40.558H40.734z"/><path opacity=".7" fill="#4C0E5C" d="M40.234 36.593h7.044v7.044h-7.044zm13.396-6.339h7.044v13.383H53.63zm7.044 0h7.044v13.383h-7.044zm14.075 6.339h7.044v7.044h-7.044zm7.045-27.471H74.75V2.078h7.044zM67.706 15.46h-7.044V2.079h7.044zm-7.044 0h-7.044V2.079h7.044zM47.279 9.122h-7.044V2.078h7.044z"/><path fill="#4C0E5C" d="M40.234 2.078h41.558v1.409H40.234zm0 40.149h41.558v1.409H40.234z"/><path d="M116.424 35.652h-1v6.985H82.792V3.078h32.632v6.636h6.926v25.938h-5.926z" fill="#6A247D" stroke="#4C0E5C" stroke-width="2"/><path opacity=".7" fill="#4C0E5C" d="M81.791 36.593h7.044v7.044h-7.044zm7.044-27.471h-7.044V2.078h7.044zm17.315 17.316h-7.043v-7.044h7.043v7.044z"/><path fill="#4C0E5C" d="M81.792 2.078h34.632v1.385H81.792zm-.001 40.173h34.632v1.385H81.791z"/><path opacity=".7" fill="#4C0E5C" d="M-1.325 36.593h7.044v7.044h-7.044zM5.72 9.122h-7.045V2.078H5.72z"/><path fill="#4C0E5C" d="M-1.325 2.078h34.632v1.385H-1.325zm0 40.173h34.632v1.385H-1.325z"/><path fill="#4C0E5C" stroke="#4C0E5C" d="M93.375.5h17.701v9.39H93.375zm0 35.324h17.701v9.39H93.375z"/><path d="M123.352 26.32v-6.926h10.389l-2.77 3.463 2.77 3.463h-10.389z" fill="#4C0E5C"/></symbol><symbol id="snake-left" viewBox="0 0 231 60"><path fill="#6A247D" stroke="#4C0E5C" d="M-.408 3.228h53.545v53.545H-.408z"/><path opacity=".7" fill="#4C0E5C" d="M-.909 48.028h9.245v9.245H-.909zm17.581-8.321h9.245v17.566h-9.245zm9.245 0h9.245v17.566h-9.245zm18.475 8.321h9.245v9.245h-9.245zm9.244-36.055h-9.245V2.728h9.245zm-18.489 8.32h-9.245V2.727h9.245z"/><path opacity=".7" fill="#4C0E5C" d="M25.903 20.293h-9.245V2.727h9.245zm-17.566-8.32H-.908V2.728h9.245z"/><path fill="#4C0E5C" d="M-.908 2.728h54.545v1.849H-.908zm-.001 52.696h54.545v1.849H-.909z"/><path fill="#6A247D" stroke="#4C0E5C" d="M54.137 3.228h53.545v53.545H54.137z"/><path opacity=".7" fill="#4C0E5C" d="M53.636 48.028h9.245v9.245h-9.245zm17.581-8.321h9.245v17.566h-9.245zm9.245 0h9.245v17.566h-9.245zm18.474 8.321h9.245v9.245h-9.245zm9.246-36.055h-9.245V2.728h9.245zm-18.49 8.32h-9.245V2.727h9.245z"/><path opacity=".7" fill="#4C0E5C" d="M80.448 20.293h-9.245V2.727h9.245zm-17.566-8.32h-9.245V2.728h9.245z"/><path fill="#4C0E5C" d="M53.637 2.728h54.545v1.849H53.637zm-.001 52.696h54.545v1.849H53.636z"/><path fill="#6A247D" stroke="#4C0E5C" d="M108.683 3.228h53.545v53.545h-53.545z"/><path opacity=".7" fill="#4C0E5C" d="M108.182 48.028h9.245v9.245h-9.245zm17.581-8.321h9.245v17.566h-9.245zm9.245 0h9.245v17.566h-9.245zm18.474 8.321h9.245v9.245h-9.245zm9.246-36.055h-9.245V2.728h9.245zm-18.49 8.32h-9.245V2.727h9.245zm-9.245 0h-9.245V2.727h9.245zm-17.566-8.32h-9.245V2.728h9.245z"/><path fill="#4C0E5C" d="M108.183 2.728h54.545v1.849h-54.545zm-.001 52.696h54.545v1.849h-54.545z"/><path d="M208.182 47.105h-1v9.168h-43.454V3.727h43.454v8.71h9.091v34.669h-8.091z" fill="#6A247D" stroke="#4C0E5C" stroke-width="2"/><path opacity=".7" fill="#4C0E5C" d="M162.727 48.028h9.245v9.245h-9.245zm9.245-36.055h-9.245V2.728h9.245zM194.699 34.7h-9.245v-9.246h9.245V34.7z"/><path fill="#4C0E5C" d="M162.728 2.727h45.455v1.818h-45.455zm-.001 52.728h45.455v1.818h-45.455z"/><path opacity=".7" fill="#4C0E5C" d="M53.636 48.028h9.245v9.245h-9.245zm9.246-36.055h-9.245V2.728h9.245z"/><path fill="#4C0E5C" d="M53.636 2.727h45.455v1.818H53.636zm0 52.728h45.455v1.818H53.636z"/><path fill="#4C0E5C" stroke="#4C0E5C" d="M177.773.5h23.546v12.636h-23.546zm0 46.364h23.546V59.5h-23.546z"/><path d="M217.272 34.545v-9.09h13.637L227.272 30l3.637 4.545h-13.637z" fill="#4C0E5C"/></symbol><symbol id="snake-phone-left" viewBox="0 0 342 221"><path fill="#6A247D" stroke="#4C0E5C" d="M-53.5 166.635H.045v53.545H-53.5z"/><path opacity=".7" fill="#4C0E5C" d="M-8.699 211.436H.546v9.245h-9.245zM.546 175.38H-8.7v-9.245H.546z"/><path fill="#4C0E5C" d="M-54 166.135H.545v1.849H-54zm0 52.696H.545v1.849H-54z"/><path fill="#6A247D" stroke="#4C0E5C" d="M1.046 166.635h53.545v53.545H1.046z"/><path opacity=".7" fill="#4C0E5C" d="M.546 211.436h9.245v9.245H.546zm17.581-8.321h9.245v17.566h-9.245zm9.245 0h9.245v17.566h-9.245zm18.475 8.321h9.245v9.245h-9.245zm9.245-36.056h-9.245v-9.245h9.245zm-18.491 8.32h-9.245v-17.566h9.245z"/><path opacity=".7" fill="#4C0E5C" d="M27.357 183.7h-9.245v-17.566h9.245zm-17.566-8.32H.546v-9.245h9.245z"/><path fill="#4C0E5C" d="M.546 166.135h54.545v1.849H.546zm0 52.696h54.545v1.849H.546z"/><path fill="#6A247D" stroke="#4C0E5C" d="M55.591 166.635h53.545v53.545H55.591z"/><path opacity=".7" fill="#4C0E5C" d="M55.091 211.436h9.245v9.245h-9.245zm17.581-8.321h9.245v17.566h-9.245zm9.245 0h9.245v17.566h-9.245zm18.475 8.321h9.245v9.245h-9.245zm9.245-36.056h-9.245v-9.245h9.245zm-18.491 8.32h-9.245v-17.566h9.245z"/><path opacity=".7" fill="#4C0E5C" d="M81.902 183.7h-9.245v-17.566h9.245zm-17.566-8.32H55.09v-9.245h9.245z"/><path fill="#4C0E5C" d="M55.091 166.135h54.545v1.849H55.091zm0 52.696h54.545v1.849H55.091z"/><path fill="#6A247D" stroke="#4C0E5C" d="M110.137 166.494h53.545v53.545h-53.545z"/><path fill="#4C0E5C" d="M163 220.535V165.99h1.849v54.545z"/><path opacity=".7" fill="#4C0E5C" d="M109.637 211.581h9.245v9.245h-9.245zm17.581-8.32h9.245v17.566h-9.245zm9.245 0h9.245v17.566h-9.245zm18.475 8.32h9.245v9.245h-9.245zm9.245-36.056h-9.245v-9.245h9.245zm-18.491 8.322h-9.245v-17.566h9.245zm-9.245 0h-9.245v-17.566h9.245zm-17.565-8.322h-9.245v-9.245h9.245z"/><path fill="#4C0E5C" d="M109.637 166.281h54.545v1.849h-54.545zm0 52.697h54.545v1.849h-54.545z"/><path fill="#6A247D" stroke="#4C0E5C" d="M110.773 165.767v-53.545h53.545v53.545z"/><path opacity=".7" fill="#4C0E5C" d="M155.574 166.267v-9.245h9.245v9.245zm-8.32-17.581v-9.245h17.566v9.245zm0-9.246v-9.245h17.566v9.245zm8.32-18.474v-9.245h9.245v9.245zm-36.055-9.245v9.245h-9.245v-9.245zm8.32 18.49v9.245h-17.566v-9.245zm0 9.245v9.245h-17.566v-9.245zm-8.32 17.565v9.245h-9.245v-9.245z"/><path fill="#4C0E5C" d="M110.273 166.267v-54.545h1.849v54.545zm52.697 0v-54.545h1.849v54.545z"/><path fill="#6A247D" stroke="#4C0E5C" d="M110.773 111.221V57.676h53.545v53.545z"/><path opacity=".7" fill="#4C0E5C" d="M155.574 111.721v-9.245h9.245v9.245zm-8.32-17.581v-9.245h17.566v9.245z"/><path opacity=".7" fill="#4C0E5C" d="M147.253 84.894V75.65h17.566v9.245zm8.321-18.474v-9.245h9.245v9.245zm-36.055-9.245v9.245h-9.245v-9.245zm8.32 18.49v9.245h-17.566v-9.245z"/><path opacity=".7" fill="#4C0E5C" d="M127.84 84.91v9.245h-17.567V84.91zm-8.321 17.566v9.245h-9.245v-9.245z"/><path fill="#4C0E5C" d="M110.273 111.721V57.176h1.849v54.545zm52.697 0V57.176h1.849v54.545z"/><path fill="#6A247D" stroke="#4C0E5C" d="M110.773 56.676V3.13h53.545v53.545z"/><path opacity=".7" fill="#4C0E5C" d="M155.574 57.176V47.93h9.245v9.245zm-8.32-17.581V30.35h17.566v9.245zm0-9.245v-9.245h17.566v9.245zm8.32-18.475V2.63h9.245v9.245zM119.519 2.63v9.245h-9.245V2.63zm8.321 18.49v9.245h-17.567V21.12zm0 9.245v9.245h-17.567v-9.245zm-8.321 17.565v9.246h-9.245V47.93z"/><path fill="#4C0E5C" d="M110.273 57.176V2.63h1.85v54.545zm52.697 0V2.63h1.85v54.545z"/><path fill="#6A247D" stroke="#4C0E5C" d="M164.956 3.228h53.545v53.545h-53.545z"/><path opacity=".7" fill="#4C0E5C" d="M164.456 48.028h9.245v9.245h-9.245zm17.581-8.32h9.245v17.566h-9.245zm9.245 0h9.245v17.566h-9.245zm18.475 8.32h9.245v9.245h-9.245zm9.245-36.056h-9.245V2.727h9.245zm-18.49 8.321h-9.245V2.727h9.245zm-9.245 0h-9.245V2.727h9.245zm-17.566-8.321h-9.245V2.727h9.245z"/><path fill="#4C0E5C" d="M164.456 2.728h54.545v1.849h-54.545zm0 52.696h54.545v1.849h-54.545z"/><path fill="#6A247D" stroke="#4C0E5C" d="M219.502 3.228h53.545v53.545h-53.545z"/><path opacity=".7" fill="#4C0E5C" d="M219.002 48.028h9.245v9.245h-9.245zm17.581-8.32h9.245v17.566h-9.245zm9.245 0h9.245v17.566h-9.245zm18.475 8.32h9.245v9.245h-9.245zm9.245-36.056h-9.245V2.727h9.245zm-18.49 8.321h-9.245V2.727h9.245zm-9.246 0h-9.245V2.727h9.245zm-17.565-8.321h-9.245V2.727h9.245z"/><path fill="#4C0E5C" d="M219.002 2.728h54.545v1.849h-54.545zm0 52.696h54.545v1.849h-54.545z"/><path d="M319.001 47.106h-1v9.167h-43.454V3.728h43.454v8.709h9.091v34.669h-8.091z" fill="#6A247D" stroke="#4C0E5C" stroke-width="2"/><path opacity=".7" fill="#4C0E5C" d="M273.547 48.027h9.245v9.245h-9.245zm9.245-36.055h-9.245V2.727h9.245zM305.52 34.7h-9.245v-9.246h9.245V34.7z"/><path fill="#4C0E5C" d="M273.547 2.728h45.455v1.818h-45.455zm54.545 31.818v-9.09h13.636L338.092 30l3.636 4.546h-13.636z"/><path fill="#4C0E5C" stroke="#4C0E5C" d="M288.591.5h23.546v12.636h-23.546zm0 46.363h23.546v12.636h-23.546z"/></symbol><symbol id="snake-phone-right" viewBox="0 0 342 544"><path fill="#6A247D" stroke="#4C0E5C" d="M394.592 54.046h-53.545V.5h53.545z"/><path opacity=".7" fill="#4C0E5C" d="M349.791 9.245h-9.245V0h9.245zm-9.245 36.056h9.245v9.245h-9.245z"/><path fill="#4C0E5C" d="M395.092 54.546h-54.545v-1.85h54.545zm0-52.696h-54.545V0h54.545z"/><path fill="#6A247D" stroke="#4C0E5C" d="M340.047 54.046h-53.545V.5h53.545z"/><path opacity=".7" fill="#4C0E5C" d="M340.547 9.245h-9.245V0h9.245zm-17.581 8.321h-9.245V0h9.245zm-9.245 0h-9.245V0h9.245zm-18.475-8.321h-9.245V0h9.245zm-9.245 36.056h9.245v9.245h-9.245zm18.49-8.321h9.245v17.566h-9.245zm9.245 0h9.245v17.566h-9.245zm17.566 8.321h9.245v9.245h-9.245z"/><path fill="#4C0E5C" d="M340.547 54.546h-54.545v-1.85h54.545zm0-52.696h-54.545V0h54.545z"/><path fill="#6A247D" stroke="#4C0E5C" d="M285.501 54.046h-53.545V.5h53.545z"/><path opacity=".7" fill="#4C0E5C" d="M286.001 9.245h-9.245V0h9.245zm-17.581 8.321h-9.245V0h9.245zm-9.245 0h-9.245V0h9.245zM240.7 9.245h-9.245V0h9.245zm-9.245 36.056h9.245v9.245h-9.245zm18.49-8.321h9.245v17.566h-9.245zm9.245 0h9.245v17.566h-9.245zm17.566 8.321h9.245v9.245h-9.245z"/><path fill="#4C0E5C" d="M286.001 54.546h-54.545v-1.85h54.545zm0-52.696h-54.545V0h54.545z"/><path fill="#6A247D" stroke="#4C0E5C" d="M285.501 54.5v53.545h-53.545V54.5z"/><path opacity=".7" fill="#4C0E5C" d="M240.7 54v9.245h-9.245V54zm8.321 17.581v9.245h-17.566v-9.245z"/><path opacity=".7" fill="#4C0E5C" d="M249.021 80.826v9.245h-17.566v-9.245zM240.7 99.3v9.246h-9.245V99.3zm36.056 9.246v-9.245h9.245v9.245zm-8.32-18.49V80.81h17.566v9.245zm0-9.246v-9.245h17.566v9.245zm8.32-17.565V54H286v9.245z"/><path fill="#4C0E5C" d="M286.001 54v54.545h-1.849V54zm-52.696 0v54.545h-1.849V54z"/><path fill="#6A247D" stroke="#4C0E5C" d="M285.501 109.046v53.545h-53.545v-53.545z"/><path opacity=".7" fill="#4C0E5C" d="M240.7 108.546v9.245h-9.245v-9.245zm8.321 17.581v9.245h-17.566v-9.245zm0 9.245v9.245h-17.566v-9.245zm-8.321 18.475v9.245h-9.245v-9.245zm36.056 9.245v-9.245h9.245v9.245zm-8.32-18.49v-9.245h17.566v9.245zm0-9.246v-9.245h17.566v9.245zm8.32-17.565v-9.245h9.245v9.245z"/><path fill="#4C0E5C" d="M286.001 108.546v54.545h-1.849v-54.545zm-52.696 0v54.545h-1.849v-54.545z"/><path fill="#6A247D" stroke="#4C0E5C" d="M285.501 163.591v53.545h-53.545v-53.545z"/><path opacity=".7" fill="#4C0E5C" d="M240.7 163.091v9.245h-9.245v-9.245zm8.321 17.581v9.245h-17.566v-9.245zm0 9.245v9.245h-17.566v-9.245zm-8.321 18.475v9.245h-9.245v-9.245zm36.056 9.245v-9.245h9.245v9.245zm-8.32-18.491v-9.245h17.566v9.245zm0-9.245v-9.245h17.566v9.245zm8.32-17.565v-9.245h9.245v9.245z"/><path fill="#4C0E5C" d="M286.001 163.091v54.545h-1.849v-54.545zm-52.696 0v54.545h-1.849v-54.545z"/><path fill="#6A247D" stroke="#4C0E5C" d="M285.501 218.137v53.545h-53.545v-53.545z"/><path opacity=".7" fill="#4C0E5C" d="M240.7 217.637v9.245h-9.245v-9.245zm8.321 17.581v9.245h-17.566v-9.245zm0 9.245v9.245h-17.566v-9.245zm-8.321 18.475v9.245h-9.245v-9.245zm36.056 9.245v-9.245h9.245v9.245zm-8.32-18.491v-9.245h17.566v9.245zm0-9.245v-9.245h17.566v9.245zm8.32-17.565v-9.245h9.245v9.245z"/><path fill="#4C0E5C" d="M286.001 217.637v54.545h-1.849v-54.545zm-52.696 0v54.545h-1.849v-54.545z"/><path fill="#6A247D" stroke="#4C0E5C" d="M285.501 272.683v53.545h-53.545v-53.545z"/><path opacity=".7" fill="#4C0E5C" d="M240.7 272.183v9.245h-9.245v-9.245zm8.321 17.581v9.245h-17.566v-9.245zm0 9.245v9.245h-17.566v-9.245zm-8.321 18.474v9.245h-9.245v-9.245zm36.056 9.246v-9.245h9.245v9.245zm-8.32-18.491v-9.245h17.566v9.245zm0-9.245v-9.245h17.566v9.245zm8.32-17.565v-9.245h9.245v9.245z"/><path fill="#4C0E5C" d="M286.001 272.183v54.545h-1.849v-54.545zm-52.696 0v54.545h-1.849v-54.545z"/><path fill="#6A247D" stroke="#4C0E5C" d="M231.318 326.046h-53.545v-53.545h53.545z"/><path opacity=".7" fill="#4C0E5C" d="M231.818 281.245h-9.245V272h9.245zm-17.581 8.32h-9.245v-17.566h9.245zm-9.245 0h-9.245v-17.566h9.245zm-18.474-8.32h-9.245V272h9.245zm-9.246 36.056h9.245v9.245h-9.245zm18.491-8.321h9.245v17.566h-9.245zm9.245 0h9.245v17.566h-9.245zm17.565 8.321h9.245v9.245h-9.245z"/><path fill="#4C0E5C" d="M231.818 326.546h-54.545v-1.849h54.545zm0-52.696h-54.545v-1.849h54.545z"/><path fill="#6A247D" stroke="#4C0E5C" d="M176.772 326.046h-53.545v-53.545h53.545z"/><path opacity=".7" fill="#4C0E5C" d="M177.272 281.245h-9.245V272h9.245zm-17.581 8.32h-9.245v-17.566h9.245zm-9.245 0h-9.245v-17.566h9.245zm-18.474-8.32h-9.245V272h9.245zm-9.245 36.056h9.245v9.245h-9.245zm18.49-8.321h9.245v17.566h-9.245z"/><path opacity=".7" fill="#4C0E5C" d="M150.462 308.98h9.245v17.566h-9.245zm17.565 8.321h9.245v9.245h-9.245z"/><path fill="#4C0E5C" d="M177.272 326.546h-54.545v-1.849h54.545zm0-52.696h-54.545v-1.849h54.545z"/><path fill="#6A247D" stroke="#4C0E5C" d="M122.228 326.046H68.683v-53.545h53.545z"/><path opacity=".7" fill="#4C0E5C" d="M122.728 281.245h-9.245V272h9.245zm-17.582 8.32h-9.245v-17.566h9.245z"/><path opacity=".7" fill="#4C0E5C" d="M95.902 289.565h-9.245v-17.566h9.245zm-18.475-8.32h-9.245V272h9.245zm-9.245 36.056h9.245v9.245h-9.245zm18.49-8.321h9.245v17.566h-9.245zm9.245 0h9.245v17.566h-9.245zm17.565 8.321h9.245v9.245h-9.245z"/><path fill="#4C0E5C" d="M122.728 326.546H68.183v-1.849h54.545zm0-52.696H68.183v-1.849h54.545z"/><path d="M22.727 282.168h1V273h43.455v52.546H23.727v-8.709h-9.09v-34.669h8.09z" fill="#6A247D" stroke="#4C0E5C" stroke-width="2"/><path opacity=".7" fill="#4C0E5C" d="M68.181 281.246h-9.245v-9.245h9.245zm-9.244 36.055h9.245v9.245h-9.245zm-22.728-22.727h9.245v9.245h-9.245v-9.245z"/><path fill="#4C0E5C" d="M68.181 326.546H22.726v-1.818h45.455zm-54.544-31.819v9.091H0l3.637-4.545L0 294.727h13.637z"/><path fill="#4C0E5C" stroke="#4C0E5C" d="M53.137 328.773H29.591v-12.636h23.546zm0-46.363H29.591v-12.636h23.546z"/></symbol><symbol id="snake-right-mob" viewBox="0 0 94 46"><path fill="#6A247D" stroke="#4C0E5C" d="M134.566 43.135H94.008V2.577h40.558z"/><path opacity=".7" fill="#4C0E5C" d="M100.552 9.121h-7.044V2.077h7.044zm-7.044 27.471h7.044v7.044h-7.044z"/><path fill="#4C0E5C" d="M135.066 43.635H93.508v-1.409h41.558zm0-40.148H93.508v-1.41h41.558z"/><path fill="#6A247D" stroke="#4C0E5C" d="M93.007 43.135H52.449V2.577h40.558z"/><path opacity=".7" fill="#4C0E5C" d="M93.507 9.121h-7.044V2.077h7.044zM80.112 15.46h-7.044V2.077h7.044zm-7.044 0h-7.044V2.077h7.044zM58.992 9.121h-7.044V2.077h7.044zm-7.045 27.471h7.044v7.044h-7.044zm14.088-6.339h7.044v13.383h-7.044zm7.044 0h7.044v13.383h-7.044zm13.384 6.339h7.044v7.044h-7.044z"/><path fill="#4C0E5C" d="M93.507 43.635H51.949v-1.409h41.558zm0-40.148H51.949v-1.41h41.558z"/><path d="M17.317 10.062h1V3.077H50.95v39.559H18.317V36h-6.926V10.062h5.926z" fill="#6A247D" stroke="#4C0E5C" stroke-width="2"/><path opacity=".7" fill="#4C0E5C" d="M51.95 9.121h-7.044V2.077h7.044zm-7.044 27.471h7.044v7.044h-7.044zM27.59 19.276h7.045v7.044H27.59v-7.044z"/><path fill="#4C0E5C" d="M51.95 43.635H17.316V42.25H51.95zm0-40.172H17.318V2.078H51.95z"/><path fill="#4C0E5C" stroke="#4C0E5C" d="M40.366 45.214h-17.7v-9.39h17.7zm0-35.324h-17.7V.5h17.7z"/><path d="M10.39 19.393v6.926H0l2.77-3.463L0 19.393h10.39z" fill="#4C0E5C"/></symbol><symbol id="snake-top" viewBox="0 0 60 236"><path fill="#6A247D" stroke="#4C0E5C" d="M56.773-49.954V3.59H3.228v-53.545z"/><path opacity=".7" fill="#4C0E5C" d="M11.972-5.154v9.245H2.727v-9.245zm36.055 9.246v-9.245h9.245v9.245z"/><path fill="#4C0E5C" d="M57.273-50.454V4.09h-1.85v-54.545zm-52.696-.001V4.09h-1.85v-54.545z"/><path fill="#6A247D" stroke="#4C0E5C" d="M56.772 4.591v53.545H3.227V4.591z"/><path opacity=".7" fill="#4C0E5C" d="M11.972 4.091v9.245H2.727V4.091zm8.321 17.581v9.245H2.727v-9.245z"/><path opacity=".7" fill="#4C0E5C" d="M20.293 30.916v9.245H2.727v-9.245zm-8.322 18.476v9.245H2.726v-9.245zm36.056 9.245v-9.245h9.245v9.245zm-8.32-18.491v-9.245h17.566v9.245zm0-9.245v-9.245h17.566v9.245zm8.32-17.565V4.091h9.245v9.245z"/><path fill="#4C0E5C" d="M57.272 4.091v54.545h-1.849V4.091zM4.576 4.09v54.546H2.727V4.09z"/><path fill="#6A247D" stroke="#4C0E5C" d="M56.773 59.137v53.545H3.228V59.137z"/><path opacity=".7" fill="#4C0E5C" d="M11.972 58.636v9.245H2.727v-9.244zm8.321 17.581v9.245H2.727v-9.245zm0 9.245v9.245H2.727v-9.245zm-8.321 18.475v9.245H2.727v-9.245zm36.055 9.245v-9.245h9.245v9.245zm-8.32-18.49v-9.245h17.566v9.245zm0-9.245v-9.245h17.566v9.245zm8.32-17.565v-9.245h9.245v9.245z"/><path fill="#4C0E5C" d="M57.273 58.637v54.545h-1.85V58.637zm-52.697-.001v54.545H2.727V58.636z"/><path fill="#6A247D" stroke="#4C0E5C" d="M56.772 113.683v53.545H3.227v-53.545z"/><path opacity=".7" fill="#4C0E5C" d="M11.972 113.182v9.245H2.727v-9.245zm8.321 17.581v9.245H2.727v-9.245zm0 9.245v9.245H2.727v-9.245zm-8.321 18.474v9.245H2.727v-9.245zm36.055 9.246v-9.245h9.245v9.245zm-8.32-18.491v-9.245h17.566v9.245z"/><path opacity=".7" fill="#4C0E5C" d="M39.707 139.993v-9.245h17.566v9.245zm8.32-17.566v-9.245h9.245v9.245z"/><path fill="#4C0E5C" d="M57.272 113.183v54.545h-1.849v-54.545zm-52.696-.001v54.545H2.727v-54.545z"/><path d="M12.894 213.182v-1H3.727v-43.455h52.546v43.455h-8.71v9.09H12.895v-8.09z" fill="#6A247D" stroke="#4C0E5C" stroke-width="2"/><path opacity=".7" fill="#4C0E5C" d="M11.972 167.727v9.245H2.727v-9.245zm36.055 9.245v-9.245h9.245v9.245zM25.3 199.7v-9.245h9.245v9.245H25.3z"/><path fill="#4C0E5C" d="M57.273 167.727v45.455h-1.819v-45.455zm-52.728 0v45.455H2.727v-45.455z"/><path opacity=".7" fill="#4C0E5C" d="M11.972 58.636v9.245H2.727v-9.244zm36.055 9.246v-9.245h9.245v9.245z"/><path fill="#4C0E5C" d="M57.273 58.637v45.455h-1.818V58.637zm-52.728-.001v45.455H2.727V58.636z"/><path fill="#4C0E5C" stroke="#4C0E5C" d="M59.5 182.773v23.546H46.864v-23.546zm-46.363 0v23.546H.5v-23.546z"/><path d="M25.454 222.273h9.09v13.637L30 232.273l-4.546 3.637v-13.637z" fill="#4C0E5C"/></symbol><symbol id="snake" viewBox="0 0 289 60"><path fill="#6A247D" stroke="#4C0E5C" d="M285.864 56.772h-53.545V3.227h53.545z"/><path opacity=".7" fill="#4C0E5C" d="M286.364 11.973h-9.245V2.728h9.245zm-17.581 8.319h-9.245V2.726h9.245zm-9.245 0h-9.245V2.726h9.245zm-18.475-8.319h-9.245V2.728h9.245zm-9.245 36.055h9.245v9.245h-9.245zm18.49-8.321h9.245v17.566h-9.245zm9.245 0h9.245v17.566h-9.245zm17.566 8.321h9.245v9.245h-9.245z"/><path fill="#4C0E5C" d="M286.364 57.272h-54.545v-1.849h54.545zm0-52.695h-54.545v-1.85h54.545z"/><path fill="#6A247D" stroke="#4C0E5C" d="M231.318 56.772h-53.545V3.227h53.545z"/><path opacity=".7" fill="#4C0E5C" d="M231.818 11.973h-9.245V2.728h9.245zm-17.581 8.319h-9.245V2.726h9.245zm-9.245 0h-9.245V2.726h9.245zm-18.474-8.319h-9.245V2.728h9.245zm-9.245 36.055h9.245v9.245h-9.245zm18.49-8.321h9.245v17.566h-9.245zm9.245 0h9.245v17.566h-9.245zm17.565 8.321h9.245v9.245h-9.245z"/><path fill="#4C0E5C" d="M231.818 57.272h-54.545v-1.849h54.545zm0-52.695h-54.545v-1.85h54.545z"/><path fill="#6A247D" stroke="#4C0E5C" d="M176.773 56.772h-53.545V3.227h53.545z"/><path opacity=".7" fill="#4C0E5C" d="M177.273 11.973h-9.245V2.728h9.245zm-17.581 8.319h-9.245V2.726h9.245zm-9.245 0h-9.245V2.726h9.245zm-18.475-8.319h-9.245V2.728h9.245zm-9.245 36.055h9.245v9.245h-9.245zm18.49-8.321h9.245v17.566h-9.245z"/><path opacity=".7" fill="#4C0E5C" d="M150.462 39.707h9.245v17.566h-9.245zm17.566 8.321h9.245v9.245h-9.245z"/><path fill="#4C0E5C" d="M177.273 57.272h-54.545v-1.849h54.545zm0-52.695h-54.545v-1.85h54.545z"/><path fill="#6A247D" stroke="#4C0E5C" d="M122.227 56.772H68.682V3.227h53.545z"/><path opacity=".7" fill="#4C0E5C" d="M122.727 11.973h-9.245V2.728h9.245zm-17.581 8.319h-9.245V2.726h9.245z"/><path opacity=".7" fill="#4C0E5C" d="M95.902 20.292h-9.245V2.726h9.245zm-18.476-8.319h-9.245V2.728h9.245zm-9.244 36.055h9.245v9.245h-9.245zm18.49-8.321h9.245v17.566h-9.245zm9.245 0h9.245v17.566h-9.245zm17.565 8.321h9.245v9.245h-9.245z"/><path fill="#4C0E5C" d="M122.727 57.272H68.182v-1.849h54.545zm0-52.695H68.182v-1.85h54.545z"/><path d="M22.727 12.895h1V3.727h43.455v52.546H23.727v-8.71h-9.09V12.895h8.09z" fill="#6A247D" stroke="#4C0E5C" stroke-width="2"/><path opacity=".7" fill="#4C0E5C" d="M68.181 11.973h-9.245V2.728h9.245zm-9.244 36.055h9.245v9.245h-9.245zM36.21 25.3h9.245v9.245H36.21V25.3z"/><path fill="#4C0E5C" d="M68.182 57.272H22.727v-1.818h45.455zm-.001-52.726H22.726V2.728h45.455z"/><path d="M331.818 47.105h-1v9.168h-43.454V3.727h43.454v8.71h9.091v34.668h-8.091z" fill="#6A247D" stroke="#4C0E5C" stroke-width="2"/><path opacity=".7" fill="#4C0E5C" d="M177.273 11.972h-9.245V2.727h9.245zm-9.245 36.056h9.245v9.245h-9.245z"/><path fill="#4C0E5C" d="M177.273 57.272h-45.455v-1.818h45.455zm0-52.726h-45.455V2.728h45.455z"/><path opacity=".7" fill="#4C0E5C" d="M295.609 11.973h-9.245V2.728h9.245zm-9.245 36.055h9.245v9.245h-9.245z"/><path fill="#4C0E5C" stroke="#4C0E5C" d="M53.137 59.5H29.59V46.864h23.546zm0-46.363H29.59V.5h23.546z"/><path d="M13.636 25.454v9.091H0L3.636 30 0 25.454h13.636z" fill="#4C0E5C"/></symbol><symbol id="sneaker" viewBox="0 0 370 50"><g clip-path="url(#clip0)"><path d="M9.774 13.626V9.749h46.93V0H11.782C4.386 0 0 3.377 0 11.688c0 8.31 4.386 11.687 11.78 11.687 4.26 0 6.83.627 10.152 2.873l8.081 5.501c5.387 3.627 9.337 4.625 15.603 4.625h2.007v3.877H.687V50H45.61c7.394 0 11.78-3.372 11.78-11.688 0-8.315-4.386-11.687-11.78-11.687-4.323 0-6.702-.563-10.088-2.873l-8.145-5.501c-5.45-3.686-9.337-4.625-15.602-4.625H9.774zM107.58 50h11.467V0h-9.774v36.873L73.809 0H62.342v50h9.774V13.127L107.58 50zm65.35 0h10.525v-3.876l-23.792-24.82 23.164-17.428V0h-10.775l-36.088 27.139V0h-9.837v50h9.837V39.135l15.392-11.58L172.93 50zm43.796-31.75l-8.145 5.502c-3.386 2.31-5.765 2.873-10.088 2.873h-1.315V9.749h37.157v3.877h-2.007c-6.265 0-10.151.934-15.602 4.625zM233.58 50h10.524v-3.876l-20.357-21.237c2.63-1.36 5.014-1.512 8.581-1.512 7.395 0 11.781-3.377 11.781-11.688 0-8.31-4.386-11.687-11.781-11.687h-44.924v50h9.774V35.939h1.315c6.266 0 10.215-.999 15.603-4.625l.917-.627L233.58 50zm62.783 0h9.774V0h-9.774v19.377h-37.844V0h-9.773v50h9.773V29.126h37.844V50zm63.471-36.374h-2.007c-6.265 0-12.845 5.251-17.796 11.56l-6.074 7.752c-2.944 3.75-6.894 7.313-9.774 7.313h-1.506V9.749h37.157v3.877zm9.774-1.938c0-8.31-4.387-11.688-11.781-11.688h-44.924v50h9.774c7.016 0 12.718-4.248 16.731-9.373l6.644-8.5c4.259-5.439 7.516-8.752 11.78-8.752 7.389 0 11.776-3.377 11.776-11.688z" fill="#000"/></g></symbol></svg>