<svg xmlns="http://www.w3.org/2000/svg" xmlns:xlink="http://www.w3.org/1999/xlink"><defs><clipPath id="clip0"><path fill="#fff" d="M0 0h369.608v50H0z"/></clipPath></defs><symbol id="cross" viewBox="0 0 31 29"><path d="M30.623 29l-10.38-14.88 9.72-14.1h-8.52l-5.94 8.94-6-8.94H.983l9.66 14.1L.383 29h8.46l6.66-9.78 6.6 9.78h8.52z" fill="#000"/></symbol><symbol id="megafon" viewBox="0 0 443 80"><path d="M44.133 1.018v40.437c0 1.89-1.456 3.2-3.204 3.2h-4.806c-.292 0-.438.29-.438.436v33.89c1.166 0 2.331.292 3.642.292 21.703 0 39.327-17.6 39.327-39.273 0-19.927-15.003-36.654-34.52-38.982zm-.873 60.51c-2.768 0-4.807-2.328-4.807-4.8 0-2.764 2.33-4.8 4.807-4.8 2.767 0 4.806 2.327 4.806 4.8.291 2.618-2.039 4.8-4.806 4.8zm11.506 0c-2.767 0-4.806-2.328-4.806-4.8 0-2.764 2.33-4.8 4.806-4.8 2.768 0 4.807 2.327 4.807 4.8 0 2.472-1.894 4.8-4.807 4.8zm11.653 0c-2.768 0-4.807-2.328-4.807-4.8 0-2.764 2.33-4.8 4.807-4.8 2.767 0 4.806 2.327 4.806 4.8 0 2.472-2.039 4.8-4.806 4.8z" fill="#00B956"/><path d="M39.327.873C17.624.873 0 18.473 0 40.146 0 59.2 13.255 74.763 31.024 78.4V43.055c0-1.6 1.457-2.91 2.914-3.2h4.806c.291 0 .437-.291.437-.437L39.327.873zm-7.574 32.29c-2.768 0-4.807-2.327-4.807-4.8 0-2.763 2.33-4.8 4.807-4.8 2.767 0 4.806 2.328 4.806 4.8 0 2.473-2.184 4.8-4.806 4.8zm401.279-10.908V37.09h-19.809V22.255h-10.05v39.272h10.05V45.673h19.809v15.854h9.759V22.255h-9.759zm-163.716 4.509c-1.602-3.491-4.807-5.382-8.011-5.382a8.734 8.734 0 00-8.011 5.382l-15.876 34.909h10.487l3.495-8.291h20.392l3.496 8.29h10.487l-16.459-34.908zm-15.148 18.763l5.972-14.4c.291-.436.437-.436.728-.436s.728 0 .728.436l5.972 14.4h-13.4zM152.21 15.273c-4.661 0-7.575 2.473-9.759 7.418l-12.672 29.527-12.818-29.673c-2.039-4.8-5.098-7.418-9.759-7.418-4.369 0-8.74 2.91-8.74 9.746v36.509h9.76v-35.2l12.963 29.236c1.602 4.218 4.661 6.691 8.594 6.691 4.224 0 6.991-2.473 8.593-6.69l12.964-29.237v35.636h9.758V25.31c-.145-6.836-4.515-10.036-8.884-10.036zm26.072 37.963c-.437 0-1.02-.436-1.02-1.018v-6.982h24.47v-8h-24.47v-5.963c0-.437.437-1.018 1.02-1.018h24.324v-8.291h-29.131c-3.496 0-5.826 2.763-5.826 5.818v27.49c0 2.91 2.476 5.819 5.826 5.819h29.131V52.8h-24.324v.436zm40.783 8.291V31.564c0-.437.437-1.018 1.02-1.018h24.324v-8.291h-29.131c-3.496 0-5.826 2.763-5.826 5.818v33.309l9.613.145zm177.699-19.49c0-13.673-5.972-20.073-20.829-20.073h-3.495c-14.857 0-20.829 6.545-20.829 20.072 0 13.382 5.972 20.073 20.829 20.073h3.204c15.148-.29 21.12-6.69 21.12-20.073zm-21.12 11.781h-3.204c-8.011 0-11.361-3.636-11.361-11.782 0-7.854 2.767-11.781 11.361-11.781h3.204c8.302 0 11.361 3.927 11.361 11.781 0 8-3.059 11.782-11.361 11.782zm-51.27-37.672h-19.518c-14.566 0-20.392 7.418-20.392 20.072 0 2.037.291 3.927.437 5.527 1.602 9.019 6.992 14.546 20.537 14.546h4.37v5.09h9.759v-5.09h4.224c13.692 0 19.081-5.527 20.537-14.545.292-1.6.437-3.491.437-5.528-.145-12.654-6.117-20.073-20.391-20.073zm-14.857 32h-4.37c-6.7 0-9.03-2.473-10.487-6.546-.437-1.455-.437-3.49-.437-5.527 0-8.291 3.933-11.782 9.468-11.782h5.971v23.854h-.145zm25.052-6.11c-1.456 3.928-3.932 6.546-10.487 6.546h-4.369v-24h5.971c5.535 0 9.468 3.49 9.468 11.782-.146 2.181-.146 3.927-.583 5.672z" fill="#00B956"/></symbol><symbol id="snake-left" viewBox="0 0 231 60"><path fill="#6A247D" stroke="#4C0E5C" d="M-.408 3.228h53.545v53.545H-.408z"/><path opacity=".7" fill="#4C0E5C" d="M-.909 48.028h9.245v9.245H-.909zm17.581-8.321h9.245v17.566h-9.245zm9.245 0h9.245v17.566h-9.245zm18.475 8.321h9.245v9.245h-9.245zm9.244-36.055h-9.245V2.728h9.245zm-18.489 8.32h-9.245V2.727h9.245z"/><path opacity=".7" fill="#4C0E5C" d="M25.903 20.293h-9.245V2.727h9.245zm-17.566-8.32H-.908V2.728h9.245z"/><path fill="#4C0E5C" d="M-.908 2.728h54.545v1.849H-.908zm-.001 52.696h54.545v1.849H-.909z"/><path fill="#6A247D" stroke="#4C0E5C" d="M54.137 3.228h53.545v53.545H54.137z"/><path opacity=".7" fill="#4C0E5C" d="M53.636 48.028h9.245v9.245h-9.245zm17.581-8.321h9.245v17.566h-9.245zm9.245 0h9.245v17.566h-9.245zm18.474 8.321h9.245v9.245h-9.245zm9.246-36.055h-9.245V2.728h9.245zm-18.49 8.32h-9.245V2.727h9.245z"/><path opacity=".7" fill="#4C0E5C" d="M80.448 20.293h-9.245V2.727h9.245zm-17.566-8.32h-9.245V2.728h9.245z"/><path fill="#4C0E5C" d="M53.637 2.728h54.545v1.849H53.637zm-.001 52.696h54.545v1.849H53.636z"/><path fill="#6A247D" stroke="#4C0E5C" d="M108.683 3.228h53.545v53.545h-53.545z"/><path opacity=".7" fill="#4C0E5C" d="M108.182 48.028h9.245v9.245h-9.245zm17.581-8.321h9.245v17.566h-9.245zm9.245 0h9.245v17.566h-9.245zm18.474 8.321h9.245v9.245h-9.245zm9.246-36.055h-9.245V2.728h9.245zm-18.49 8.32h-9.245V2.727h9.245zm-9.245 0h-9.245V2.727h9.245zm-17.566-8.32h-9.245V2.728h9.245z"/><path fill="#4C0E5C" d="M108.183 2.728h54.545v1.849h-54.545zm-.001 52.696h54.545v1.849h-54.545z"/><path d="M208.182 47.105h-1v9.168h-43.454V3.727h43.454v8.71h9.091v34.669h-8.091z" fill="#6A247D" stroke="#4C0E5C" stroke-width="2"/><path opacity=".7" fill="#4C0E5C" d="M162.727 48.028h9.245v9.245h-9.245zm9.245-36.055h-9.245V2.728h9.245zM194.699 34.7h-9.245v-9.246h9.245V34.7z"/><path fill="#4C0E5C" d="M162.728 2.727h45.455v1.818h-45.455zm-.001 52.728h45.455v1.818h-45.455z"/><path opacity=".7" fill="#4C0E5C" d="M53.636 48.028h9.245v9.245h-9.245zm9.246-36.055h-9.245V2.728h9.245z"/><path fill="#4C0E5C" d="M53.636 2.727h45.455v1.818H53.636zm0 52.728h45.455v1.818H53.636z"/><path fill="#4C0E5C" stroke="#4C0E5C" d="M177.773.5h23.546v12.636h-23.546zm0 46.364h23.546V59.5h-23.546z"/><path d="M217.272 34.545v-9.09h13.637L227.272 30l3.637 4.545h-13.637z" fill="#4C0E5C"/></symbol><symbol id="snake" viewBox="0 0 289 60"><path fill="#6A247D" stroke="#4C0E5C" d="M285.864 56.772h-53.545V3.227h53.545z"/><path opacity=".7" fill="#4C0E5C" d="M286.364 11.973h-9.245V2.728h9.245zm-17.581 8.319h-9.245V2.726h9.245zm-9.245 0h-9.245V2.726h9.245zm-18.475-8.319h-9.245V2.728h9.245zm-9.245 36.055h9.245v9.245h-9.245zm18.49-8.321h9.245v17.566h-9.245zm9.245 0h9.245v17.566h-9.245zm17.566 8.321h9.245v9.245h-9.245z"/><path fill="#4C0E5C" d="M286.364 57.272h-54.545v-1.849h54.545zm0-52.695h-54.545v-1.85h54.545z"/><path fill="#6A247D" stroke="#4C0E5C" d="M231.318 56.772h-53.545V3.227h53.545z"/><path opacity=".7" fill="#4C0E5C" d="M231.818 11.973h-9.245V2.728h9.245zm-17.581 8.319h-9.245V2.726h9.245zm-9.245 0h-9.245V2.726h9.245zm-18.474-8.319h-9.245V2.728h9.245zm-9.245 36.055h9.245v9.245h-9.245zm18.49-8.321h9.245v17.566h-9.245zm9.245 0h9.245v17.566h-9.245zm17.565 8.321h9.245v9.245h-9.245z"/><path fill="#4C0E5C" d="M231.818 57.272h-54.545v-1.849h54.545zm0-52.695h-54.545v-1.85h54.545z"/><path fill="#6A247D" stroke="#4C0E5C" d="M176.773 56.772h-53.545V3.227h53.545z"/><path opacity=".7" fill="#4C0E5C" d="M177.273 11.973h-9.245V2.728h9.245zm-17.581 8.319h-9.245V2.726h9.245zm-9.245 0h-9.245V2.726h9.245zm-18.475-8.319h-9.245V2.728h9.245zm-9.245 36.055h9.245v9.245h-9.245zm18.49-8.321h9.245v17.566h-9.245z"/><path opacity=".7" fill="#4C0E5C" d="M150.462 39.707h9.245v17.566h-9.245zm17.566 8.321h9.245v9.245h-9.245z"/><path fill="#4C0E5C" d="M177.273 57.272h-54.545v-1.849h54.545zm0-52.695h-54.545v-1.85h54.545z"/><path fill="#6A247D" stroke="#4C0E5C" d="M122.227 56.772H68.682V3.227h53.545z"/><path opacity=".7" fill="#4C0E5C" d="M122.727 11.973h-9.245V2.728h9.245zm-17.581 8.319h-9.245V2.726h9.245z"/><path opacity=".7" fill="#4C0E5C" d="M95.902 20.292h-9.245V2.726h9.245zm-18.476-8.319h-9.245V2.728h9.245zm-9.244 36.055h9.245v9.245h-9.245zm18.49-8.321h9.245v17.566h-9.245zm9.245 0h9.245v17.566h-9.245zm17.565 8.321h9.245v9.245h-9.245z"/><path fill="#4C0E5C" d="M122.727 57.272H68.182v-1.849h54.545zm0-52.695H68.182v-1.85h54.545z"/><path d="M22.727 12.895h1V3.727h43.455v52.546H23.727v-8.71h-9.09V12.895h8.09z" fill="#6A247D" stroke="#4C0E5C" stroke-width="2"/><path opacity=".7" fill="#4C0E5C" d="M68.181 11.973h-9.245V2.728h9.245zm-9.244 36.055h9.245v9.245h-9.245zM36.21 25.3h9.245v9.245H36.21V25.3z"/><path fill="#4C0E5C" d="M68.182 57.272H22.727v-1.818h45.455zm-.001-52.726H22.726V2.728h45.455z"/><path d="M331.818 47.105h-1v9.168h-43.454V3.727h43.454v8.71h9.091v34.668h-8.091z" fill="#6A247D" stroke="#4C0E5C" stroke-width="2"/><path opacity=".7" fill="#4C0E5C" d="M177.273 11.972h-9.245V2.727h9.245zm-9.245 36.056h9.245v9.245h-9.245z"/><path fill="#4C0E5C" d="M177.273 57.272h-45.455v-1.818h45.455zm0-52.726h-45.455V2.728h45.455z"/><path opacity=".7" fill="#4C0E5C" d="M295.609 11.973h-9.245V2.728h9.245zm-9.245 36.055h9.245v9.245h-9.245z"/><path fill="#4C0E5C" stroke="#4C0E5C" d="M53.137 59.5H29.59V46.864h23.546zm0-46.363H29.59V.5h23.546z"/><path d="M13.636 25.454v9.091H0L3.636 30 0 25.454h13.636z" fill="#4C0E5C"/></symbol><symbol id="sneaker" viewBox="0 0 370 50"><g clip-path="url(#clip0)"><path d="M9.774 13.626V9.749h46.93V0H11.782C4.386 0 0 3.377 0 11.688c0 8.31 4.386 11.687 11.78 11.687 4.26 0 6.83.627 10.152 2.873l8.081 5.501c5.387 3.627 9.337 4.625 15.603 4.625h2.007v3.877H.687V50H45.61c7.394 0 11.78-3.372 11.78-11.688 0-8.315-4.386-11.687-11.78-11.687-4.323 0-6.702-.563-10.088-2.873l-8.145-5.501c-5.45-3.686-9.337-4.625-15.602-4.625H9.774zM107.58 50h11.467V0h-9.774v36.873L73.809 0H62.342v50h9.774V13.127L107.58 50zm65.35 0h10.525v-3.876l-23.792-24.82 23.164-17.428V0h-10.775l-36.088 27.139V0h-9.837v50h9.837V39.135l15.392-11.58L172.93 50zm43.796-31.75l-8.145 5.502c-3.386 2.31-5.765 2.873-10.088 2.873h-1.315V9.749h37.157v3.877h-2.007c-6.265 0-10.151.934-15.602 4.625zM233.58 50h10.524v-3.876l-20.357-21.237c2.63-1.36 5.014-1.512 8.581-1.512 7.395 0 11.781-3.377 11.781-11.688 0-8.31-4.386-11.687-11.781-11.687h-44.924v50h9.774V35.939h1.315c6.266 0 10.215-.999 15.603-4.625l.917-.627L233.58 50zm62.783 0h9.774V0h-9.774v19.377h-37.844V0h-9.773v50h9.773V29.126h37.844V50zm63.471-36.374h-2.007c-6.265 0-12.845 5.251-17.796 11.56l-6.074 7.752c-2.944 3.75-6.894 7.313-9.774 7.313h-1.506V9.749h37.157v3.877zm9.774-1.938c0-8.31-4.387-11.688-11.781-11.688h-44.924v50h9.774c7.016 0 12.718-4.248 16.731-9.373l6.644-8.5c4.259-5.439 7.516-8.752 11.78-8.752 7.389 0 11.776-3.377 11.776-11.688z" fill="#000"/></g></symbol></svg>