<svg width="720" height="840" viewBox="0 0 720 840" fill="none" xmlns="http://www.w3.org/2000/svg"><g clip-path="url(#clip0)"><path fill="#53B561" d="M0 0h720v840H0z"/><path d="M0 0h60v60H0zm120 0h60v60h-60zm120 0h60v60h-60zm120 0h60v60h-60zm120 0h60v60h-60zm120 0h60v60h-60zM60 60h60v60H60zm120 0h60v60h-60zm120 0h60v60h-60zm120 0h60v60h-60zm120 0h60v60h-60zm120 0h60v60h-60zM0 120h60v60H0zm120 0h60v60h-60zm120 0h60v60h-60zm120 0h60v60h-60zm120 0h60v60h-60zm120 0h60v60h-60zM60 180h60v60H60zm120 0h60v60h-60zm120 0h60v60h-60zm120 0h60v60h-60zm120 0h60v60h-60zm120 0h60v60h-60zM0 240h60v60H0zm120 0h60v60h-60zm120 0h60v60h-60zm120 0h60v60h-60zm120 0h60v60h-60zm120 0h60v60h-60zM60 300h60v60H60zm120 0h60v60h-60zm120 0h60v60h-60zm120 0h60v60h-60zm120 0h60v60h-60zm120 0h60v60h-60zM0 360h60v60H0zm120 0h60v60h-60zm120 0h60v60h-60zm120 0h60v60h-60zm120 0h60v60h-60zm120 0h60v60h-60zM60 420h60v60H60zm120 0h60v60h-60zm120 0h60v60h-60zm120 0h60v60h-60zm120 0h60v60h-60zm120 0h60v60h-60zM0 480h60v60H0zm120 0h60v60h-60zm120 0h60v60h-60zm120 0h60v60h-60zm120 0h60v60h-60zm120 0h60v60h-60zM60 540h60v60H60zm120 0h60v60h-60zm120 0h60v60h-60zm120 0h60v60h-60zm120 0h60v60h-60zm120 0h60v60h-60zM0 600h60v60H0zm120 0h60v60h-60zm120 0h60v60h-60zm120 0h60v60h-60zm120 0h60v60h-60zm120 0h60v60h-60zM60 660h60v60H60zm120 0h60v60h-60zm120 0h60v60h-60zm120 0h60v60h-60zm120 0h60v60h-60zm120 0h60v60h-60zM0 720h60v60H0zm120 0h60v60h-60zm120 0h60v60h-60zm120 0h60v60h-60zm120 0h60v60h-60zm120 0h60v60h-60zM60 780h60v60H60zm120 0h60v60h-60zm120 0h60v60h-60zm120 0h60v60h-60zm120 0h60v60h-60zm120 0h60v60h-60z" opacity=".4" fill="#167A4F" fill-opacity=".4"/></g><defs><clipPath id="clip0"><path fill="#fff" d="M0 0h720v840H0z"/></clipPath></defs></svg>