<svg width="238" height="359" viewBox="0 0 238 359" fill="none" xmlns="http://www.w3.org/2000/svg">
<g clip-path="url(#clip0)">
<rect width="238" height="359" fill="#53B561"/>
<g opacity="0.4">
<rect x="-39" y="0.625" width="39.7812" height="39.7812" fill="#167A4F" fill-opacity="0.4"/>
<rect x="40.5625" y="0.625" width="39.7812" height="39.7812" fill="#167A4F" fill-opacity="0.4"/>
<rect x="120.125" y="0.625" width="39.7812" height="39.7812" fill="#167A4F" fill-opacity="0.4"/>
<rect x="199.688" y="0.625" width="39.7812" height="39.7812" fill="#167A4F" fill-opacity="0.4"/>
<rect x="0.78125" y="40.4062" width="39.7812" height="39.7812" fill="#167A4F" fill-opacity="0.4"/>
<rect x="80.3438" y="40.4062" width="39.7812" height="39.7812" fill="#167A4F" fill-opacity="0.4"/>
<rect x="159.906" y="40.4062" width="39.7812" height="39.7812" fill="#167A4F" fill-opacity="0.4"/>
<rect x="-39" y="80.1875" width="39.7812" height="39.7812" fill="#167A4F" fill-opacity="0.4"/>
<rect x="40.5625" y="80.1875" width="39.7812" height="39.7812" fill="#167A4F" fill-opacity="0.4"/>
<rect x="120.125" y="80.1875" width="39.7812" height="39.7812" fill="#167A4F" fill-opacity="0.4"/>
<rect x="199.688" y="80.1875" width="39.7812" height="39.7812" fill="#167A4F" fill-opacity="0.4"/>
<rect x="0.78125" y="119.969" width="39.7812" height="39.7812" fill="#167A4F" fill-opacity="0.4"/>
<rect x="80.3438" y="119.969" width="39.7812" height="39.7812" fill="#167A4F" fill-opacity="0.4"/>
<rect x="159.906" y="119.969" width="39.7812" height="39.7812" fill="#167A4F" fill-opacity="0.4"/>
<rect x="-39" y="159.75" width="39.7812" height="39.7812" fill="#167A4F" fill-opacity="0.4"/>
<rect x="40.5625" y="159.75" width="39.7812" height="39.7812" fill="#167A4F" fill-opacity="0.4"/>
<rect x="120.125" y="159.75" width="39.7812" height="39.7812" fill="#167A4F" fill-opacity="0.4"/>
<rect x="199.688" y="159.75" width="39.7812" height="39.7812" fill="#167A4F" fill-opacity="0.4"/>
<rect x="0.78125" y="199.531" width="39.7812" height="39.7812" fill="#167A4F" fill-opacity="0.4"/>
<rect x="80.3438" y="199.531" width="39.7812" height="39.7812" fill="#167A4F" fill-opacity="0.4"/>
<rect x="159.906" y="199.531" width="39.7812" height="39.7812" fill="#167A4F" fill-opacity="0.4"/>
<rect x="-39" y="239.312" width="39.7812" height="39.7812" fill="#167A4F" fill-opacity="0.4"/>
<rect x="40.5625" y="239.312" width="39.7812" height="39.7812" fill="#167A4F" fill-opacity="0.4"/>
<rect x="120.125" y="239.312" width="39.7812" height="39.7812" fill="#167A4F" fill-opacity="0.4"/>
<rect x="199.688" y="239.312" width="39.7812" height="39.7812" fill="#167A4F" fill-opacity="0.4"/>
<rect x="0.78125" y="279.094" width="39.7812" height="39.7812" fill="#167A4F" fill-opacity="0.4"/>
<rect x="80.3438" y="279.094" width="39.7812" height="39.7812" fill="#167A4F" fill-opacity="0.4"/>
<rect x="159.906" y="279.094" width="39.7812" height="39.7812" fill="#167A4F" fill-opacity="0.4"/>
<rect x="-39" y="318.875" width="39.7812" height="39.7812" fill="#167A4F" fill-opacity="0.4"/>
<rect x="40.5625" y="318.875" width="39.7812" height="39.7812" fill="#167A4F" fill-opacity="0.4"/>
<rect x="120.125" y="318.875" width="39.7812" height="39.7812" fill="#167A4F" fill-opacity="0.4"/>
<rect x="199.688" y="318.875" width="39.7812" height="39.7812" fill="#167A4F" fill-opacity="0.4"/>
<rect x="0.78125" y="358.656" width="39.7812" height="39.7812" fill="#167A4F" fill-opacity="0.4"/>
<rect x="80.3438" y="358.656" width="39.7812" height="39.7812" fill="#167A4F" fill-opacity="0.4"/>
<rect x="159.906" y="358.656" width="39.7812" height="39.7812" fill="#167A4F" fill-opacity="0.4"/>
</g>
</g>
<defs>
<clipPath id="clip0">
<rect width="238" height="359" fill="white"/>
</clipPath>
</defs>
</svg>
