<svg width="1440" height="120" viewBox="0 0 1440 120" fill="#53B561" xmlns="http://www.w3.org/2000/svg">
<rect x="60" width="60" height="60" fill="#167A4F" fill-opacity="0.4"/>
<rect x="180" width="60" height="60" fill="#167A4F" fill-opacity="0.4"/>
<rect x="300" width="60" height="60" fill="#167A4F" fill-opacity="0.4"/>
<rect x="420" width="60" height="60" fill="#167A4F" fill-opacity="0.4"/>
<rect x="540" width="60" height="60" fill="#167A4F" fill-opacity="0.4"/>
<rect x="660" width="60" height="60" fill="#167A4F" fill-opacity="0.4"/>
<rect x="780" width="60" height="60" fill="#167A4F" fill-opacity="0.4"/>
<rect x="900" width="60" height="60" fill="#167A4F" fill-opacity="0.4"/>
<rect x="1020" width="60" height="60" fill="#167A4F" fill-opacity="0.4"/>
<rect x="1140" width="60" height="60" fill="#167A4F" fill-opacity="0.4"/>
<rect x="1260" width="60" height="60" fill="#167A4F" fill-opacity="0.4"/>
<rect x="1380" width="60" height="60" fill="#167A4F" fill-opacity="0.4"/>
<rect y="60" width="60" height="60" fill="#167A4F" fill-opacity="0.4"/>
<rect x="120" y="60" width="60" height="60" fill="#167A4F" fill-opacity="0.4"/>
<rect x="240" y="60" width="60" height="60" fill="#167A4F" fill-opacity="0.4"/>
<rect x="360" y="60" width="60" height="60" fill="#167A4F" fill-opacity="0.4"/>
<rect x="480" y="60" width="60" height="60" fill="#167A4F" fill-opacity="0.4"/>
<rect x="600" y="60" width="60" height="60" fill="#167A4F" fill-opacity="0.4"/>
<rect x="720" y="60" width="60" height="60" fill="#167A4F" fill-opacity="0.4"/>
<rect x="840" y="60" width="60" height="60" fill="#167A4F" fill-opacity="0.4"/>
<rect x="960" y="60" width="60" height="60" fill="#167A4F" fill-opacity="0.4"/>
<rect x="1080" y="60" width="60" height="60" fill="#167A4F" fill-opacity="0.4"/>
<rect x="1200" y="60" width="60" height="60" fill="#167A4F" fill-opacity="0.4"/>
<rect x="1320" y="60" width="60" height="60" fill="#167A4F" fill-opacity="0.4"/>
</svg>
