<svg width="1267" height="19" viewBox="0 0 1267 19" fill="none" xmlns="http://www.w3.org/2000/svg">
<path d="M2.6 18.4V15.8H0V13.2H5.2V15.8H13V10.6H2.6V8H0V2.8H2.6V0.200001H15.6V2.8H18.2V5.4H13V2.8H5.2V8H15.6V10.6H18.2V15.8H15.6V18.4H2.6ZM20.8 18.4V0.200001H26V2.8H28.6V5.4H31.2V8H33.8V0.200001H39V18.4H33.8V13.2H31.2V10.6H28.6V8H26V18.4H20.8ZM41.6 18.4V0.200001H59.8V2.8H46.8V8H57.2V10.6H46.8V15.8H59.8V18.4H41.6ZM62.4 18.4V5.4H65V2.8H67.6V0.200001H75.4V2.8H78V5.4H80.6V18.4H75.4V13.2H67.6V18.4H62.4ZM67.6 10.6H75.4V5.4H72.8V2.8H70.2V5.4H67.6V10.6ZM83.2 18.4V0.200001H88.4V8H91V5.4H93.6V2.8H96.2V0.200001H101.4V2.8H98.8V5.4H96.2V8H93.6V10.6H96.2V13.2H98.8V15.8H101.4V18.4H93.6V15.8H91V13.2H88.4V18.4H83.2ZM104 18.4V0.200001H122.2V2.8H109.2V8H119.6V10.6H109.2V15.8H122.2V18.4H104ZM124.8 18.4V0.200001H140.4V2.8H143V10.6H137.8V13.2H140.4V15.8H143V18.4H135.2V15.8H132.6V13.2H130V18.4H124.8ZM130 10.6H135.2V8H137.8V2.8H130V10.6ZM145.6 18.4V0.200001H150.8V8H158.6V0.200001H163.8V18.4H158.6V10.6H150.8V18.4H145.6ZM166.4 18.4V0.200001H184.6V2.8H171.6V8H182V10.6H171.6V15.8H184.6V18.4H166.4ZM187.2 18.4V5.4H189.8V2.8H192.4V0.200001H200.2V2.8H202.8V5.4H205.4V18.4H200.2V13.2H192.4V18.4H187.2ZM192.4 10.6H200.2V5.4H197.6V2.8H195V5.4H192.4V10.6ZM208 18.4V0.200001H221V2.8H223.6V5.4H226.2V13.2H223.6V15.8H221V18.4H208ZM213.2 15.8H218.4V13.2H221V5.4H218.4V2.8H213.2V15.8ZM249.6 18.4V13.2H252.2V10.6H254.8V8H252.2V5.4H249.6V0.200001H254.8V5.4H257.4V8H260V5.4H262.6V0.200001H267.8V5.4H265.2V8H262.6V10.6H265.2V13.2H267.8V18.4H262.6V13.2H260V10.6H257.4V13.2H254.8V18.4H249.6ZM291.2 18.4V0.200001H296.4V2.8H299V5.4H301.6V2.8H304.2V0.200001H309.4V18.4H304.2V8H301.6V13.2H299V8H296.4V18.4H291.2ZM312 18.4V0.200001H330.2V2.8H317.2V8H327.6V10.6H317.2V15.8H330.2V18.4H312ZM338 18.4V15.8H335.4V13.2H332.8V5.4H335.4V2.8H338V0.200001H351V2.8H340.6V5.4H338V13.2H340.6V15.8H345.8V10.6H343.2V8H351V18.4H338ZM353.6 18.4V5.4H356.2V2.8H358.8V0.200001H366.6V2.8H369.2V5.4H371.8V18.4H366.6V13.2H358.8V18.4H353.6ZM358.8 10.6H366.6V5.4H364V2.8H361.4V5.4H358.8V10.6ZM374.4 18.4V0.200001H392.6V2.8H379.6V8H390V10.6H379.6V18.4H374.4ZM397.8 18.4V15.8H395.2V2.8H397.8V0.200001H410.8V2.8H413.4V15.8H410.8V18.4H397.8ZM400.4 15.8H408.2V2.8H400.4V15.8ZM416 18.4V0.200001H421.2V2.8H423.8V5.4H426.4V8H429V0.200001H434.2V18.4H429V13.2H426.4V10.6H423.8V8H421.2V18.4H416ZM457.6 18.4V13.2H460.2V10.6H462.8V8H460.2V5.4H457.6V0.200001H462.8V5.4H465.4V8H468V5.4H470.6V0.200001H475.8V5.4H473.2V8H470.6V10.6H473.2V13.2H475.8V18.4H470.6V13.2H468V10.6H465.4V13.2H462.8V18.4H457.6ZM501.8 18.4V15.8H499.2V13.2H504.4V15.8H512.2V10.6H501.8V8H499.2V2.8H501.8V0.200001H514.8V2.8H517.4V5.4H512.2V2.8H504.4V8H514.8V10.6H517.4V15.8H514.8V18.4H501.8ZM520 18.4V0.200001H525.2V2.8H527.8V5.4H530.4V8H533V0.200001H538.2V18.4H533V13.2H530.4V10.6H527.8V8H525.2V18.4H520ZM540.8 18.4V0.200001H559V2.8H546V8H556.4V10.6H546V15.8H559V18.4H540.8ZM561.6 18.4V5.4H564.2V2.8H566.8V0.200001H574.6V2.8H577.2V5.4H579.8V18.4H574.6V13.2H566.8V18.4H561.6ZM566.8 10.6H574.6V5.4H572V2.8H569.4V5.4H566.8V10.6ZM582.4 18.4V0.200001H587.6V8H590.2V5.4H592.8V2.8H595.4V0.200001H600.6V2.8H598V5.4H595.4V8H592.8V10.6H595.4V13.2H598V15.8H600.6V18.4H592.8V15.8H590.2V13.2H587.6V18.4H582.4ZM603.2 18.4V0.200001H621.4V2.8H608.4V8H618.8V10.6H608.4V15.8H621.4V18.4H603.2ZM624 18.4V0.200001H639.6V2.8H642.2V10.6H637V13.2H639.6V15.8H642.2V18.4H634.4V15.8H631.8V13.2H629.2V18.4H624ZM629.2 10.6H634.4V8H637V2.8H629.2V10.6ZM644.8 18.4V0.200001H650V8H657.8V0.200001H663V18.4H657.8V10.6H650V18.4H644.8ZM665.6 18.4V0.200001H683.8V2.8H670.8V8H681.2V10.6H670.8V15.8H683.8V18.4H665.6ZM686.4 18.4V5.4H689V2.8H691.6V0.200001H699.4V2.8H702V5.4H704.6V18.4H699.4V13.2H691.6V18.4H686.4ZM691.6 10.6H699.4V5.4H696.8V2.8H694.2V5.4H691.6V10.6ZM707.2 18.4V0.200001H720.2V2.8H722.8V5.4H725.4V13.2H722.8V15.8H720.2V18.4H707.2ZM712.4 15.8H717.6V13.2H720.2V5.4H717.6V2.8H712.4V15.8ZM748.8 18.4V13.2H751.4V10.6H754V8H751.4V5.4H748.8V0.200001H754V5.4H756.6V8H759.2V5.4H761.8V0.200001H767V5.4H764.4V8H761.8V10.6H764.4V13.2H767V18.4H761.8V13.2H759.2V10.6H756.6V13.2H754V18.4H748.8ZM790.4 18.4V0.200001H795.6V2.8H798.2V5.4H800.8V2.8H803.4V0.200001H808.6V18.4H803.4V8H800.8V13.2H798.2V8H795.6V18.4H790.4ZM811.2 18.4V0.200001H829.4V2.8H816.4V8H826.8V10.6H816.4V15.8H829.4V18.4H811.2ZM837.2 18.4V15.8H834.6V13.2H832V5.4H834.6V2.8H837.2V0.200001H850.2V2.8H839.8V5.4H837.2V13.2H839.8V15.8H845V10.6H842.4V8H850.2V18.4H837.2ZM852.8 18.4V5.4H855.4V2.8H858V0.200001H865.8V2.8H868.4V5.4H871V18.4H865.8V13.2H858V18.4H852.8ZM858 10.6H865.8V5.4H863.2V2.8H860.6V5.4H858V10.6ZM873.6 18.4V0.200001H891.8V2.8H878.8V8H889.2V10.6H878.8V18.4H873.6ZM897 18.4V15.8H894.4V2.8H897V0.200001H910V2.8H912.6V15.8H910V18.4H897ZM899.6 15.8H907.4V2.8H899.6V15.8ZM915.2 18.4V0.200001H920.4V2.8H923V5.4H925.6V8H928.2V0.200001H933.4V18.4H928.2V13.2H925.6V10.6H923V8H920.4V18.4H915.2ZM956.8 18.4V13.2H959.4V10.6H962V8H959.4V5.4H956.8V0.200001H962V5.4H964.6V8H967.2V5.4H969.8V0.200001H975V5.4H972.4V8H969.8V10.6H972.4V13.2H975V18.4H969.8V13.2H967.2V10.6H964.6V13.2H962V18.4H956.8ZM1001 18.4V15.8H998.4V13.2H1003.6V15.8H1011.4V10.6H1001V8H998.4V2.8H1001V0.200001H1014V2.8H1016.6V5.4H1011.4V2.8H1003.6V8H1014V10.6H1016.6V15.8H1014V18.4H1001ZM1019.2 18.4V0.200001H1024.4V2.8H1027V5.4H1029.6V8H1032.2V0.200001H1037.4V18.4H1032.2V13.2H1029.6V10.6H1027V8H1024.4V18.4H1019.2ZM1040 18.4V0.200001H1058.2V2.8H1045.2V8H1055.6V10.6H1045.2V15.8H1058.2V18.4H1040ZM1060.8 18.4V5.4H1063.4V2.8H1066V0.200001H1073.8V2.8H1076.4V5.4H1079V18.4H1073.8V13.2H1066V18.4H1060.8ZM1066 10.6H1073.8V5.4H1071.2V2.8H1068.6V5.4H1066V10.6ZM1081.6 18.4V0.200001H1086.8V8H1089.4V5.4H1092V2.8H1094.6V0.200001H1099.8V2.8H1097.2V5.4H1094.6V8H1092V10.6H1094.6V13.2H1097.2V15.8H1099.8V18.4H1092V15.8H1089.4V13.2H1086.8V18.4H1081.6ZM1102.4 18.4V0.200001H1120.6V2.8H1107.6V8H1118V10.6H1107.6V15.8H1120.6V18.4H1102.4ZM1123.2 18.4V0.200001H1138.8V2.8H1141.4V10.6H1136.2V13.2H1138.8V15.8H1141.4V18.4H1133.6V15.8H1131V13.2H1128.4V18.4H1123.2ZM1128.4 10.6H1133.6V8H1136.2V2.8H1128.4V10.6ZM1144 18.4V0.200001H1149.2V8H1157V0.200001H1162.2V18.4H1157V10.6H1149.2V18.4H1144ZM1164.8 18.4V0.200001H1183V2.8H1170V8H1180.4V10.6H1170V15.8H1183V18.4H1164.8ZM1185.6 18.4V5.4H1188.2V2.8H1190.8V0.200001H1198.6V2.8H1201.2V5.4H1203.8V18.4H1198.6V13.2H1190.8V18.4H1185.6ZM1190.8 10.6H1198.6V5.4H1196V2.8H1193.4V5.4H1190.8V10.6ZM1206.4 18.4V0.200001H1219.4V2.8H1222V5.4H1224.6V13.2H1222V15.8H1219.4V18.4H1206.4ZM1211.6 15.8H1216.8V13.2H1219.4V5.4H1216.8V2.8H1211.6V15.8ZM1248 18.4V13.2H1250.6V10.6H1253.2V8H1250.6V5.4H1248V0.200001H1253.2V5.4H1255.8V8H1258.4V5.4H1261V0.200001H1266.2V5.4H1263.6V8H1261V10.6H1263.6V13.2H1266.2V18.4H1261V13.2H1258.4V10.6H1255.8V13.2H1253.2V18.4H1248Z" fill="#6F0792"/>
</svg>
