<svg width="720" height="840" viewBox="0 0 720 840" fill="none" xmlns="http://www.w3.org/2000/svg">
<g clip-path="url(#clip0)">
<rect width="720" height="840" fill="#53B561"/>
<g opacity="0.4">
<rect width="60" height="60" fill="#167A4F" fill-opacity="0.4"/>
<rect x="120" width="60" height="60" fill="#167A4F" fill-opacity="0.4"/>
<rect x="240" width="60" height="60" fill="#167A4F" fill-opacity="0.4"/>
<rect x="360" width="60" height="60" fill="#167A4F" fill-opacity="0.4"/>
<rect x="480" width="60" height="60" fill="#167A4F" fill-opacity="0.4"/>
<rect x="600" width="60" height="60" fill="#167A4F" fill-opacity="0.4"/>
<rect x="60" y="60" width="60" height="60" fill="#167A4F" fill-opacity="0.4"/>
<rect x="180" y="60" width="60" height="60" fill="#167A4F" fill-opacity="0.4"/>
<rect x="300" y="60" width="60" height="60" fill="#167A4F" fill-opacity="0.4"/>
<rect x="420" y="60" width="60" height="60" fill="#167A4F" fill-opacity="0.4"/>
<rect x="540" y="60" width="60" height="60" fill="#167A4F" fill-opacity="0.4"/>
<rect x="660" y="60" width="60" height="60" fill="#167A4F" fill-opacity="0.4"/>
<rect y="120" width="60" height="60" fill="#167A4F" fill-opacity="0.4"/>
<rect x="120" y="120" width="60" height="60" fill="#167A4F" fill-opacity="0.4"/>
<rect x="240" y="120" width="60" height="60" fill="#167A4F" fill-opacity="0.4"/>
<rect x="360" y="120" width="60" height="60" fill="#167A4F" fill-opacity="0.4"/>
<rect x="480" y="120" width="60" height="60" fill="#167A4F" fill-opacity="0.4"/>
<rect x="600" y="120" width="60" height="60" fill="#167A4F" fill-opacity="0.4"/>
<rect x="60" y="180" width="60" height="60" fill="#167A4F" fill-opacity="0.4"/>
<rect x="180" y="180" width="60" height="60" fill="#167A4F" fill-opacity="0.4"/>
<rect x="300" y="180" width="60" height="60" fill="#167A4F" fill-opacity="0.4"/>
<rect x="420" y="180" width="60" height="60" fill="#167A4F" fill-opacity="0.4"/>
<rect x="540" y="180" width="60" height="60" fill="#167A4F" fill-opacity="0.4"/>
<rect x="660" y="180" width="60" height="60" fill="#167A4F" fill-opacity="0.4"/>
<rect y="240" width="60" height="60" fill="#167A4F" fill-opacity="0.4"/>
<rect x="120" y="240" width="60" height="60" fill="#167A4F" fill-opacity="0.4"/>
<rect x="240" y="240" width="60" height="60" fill="#167A4F" fill-opacity="0.4"/>
<rect x="360" y="240" width="60" height="60" fill="#167A4F" fill-opacity="0.4"/>
<rect x="480" y="240" width="60" height="60" fill="#167A4F" fill-opacity="0.4"/>
<rect x="600" y="240" width="60" height="60" fill="#167A4F" fill-opacity="0.4"/>
<rect x="60" y="300" width="60" height="60" fill="#167A4F" fill-opacity="0.4"/>
<rect x="180" y="300" width="60" height="60" fill="#167A4F" fill-opacity="0.4"/>
<rect x="300" y="300" width="60" height="60" fill="#167A4F" fill-opacity="0.4"/>
<rect x="420" y="300" width="60" height="60" fill="#167A4F" fill-opacity="0.4"/>
<rect x="540" y="300" width="60" height="60" fill="#167A4F" fill-opacity="0.4"/>
<rect x="660" y="300" width="60" height="60" fill="#167A4F" fill-opacity="0.4"/>
<rect y="360" width="60" height="60" fill="#167A4F" fill-opacity="0.4"/>
<rect x="120" y="360" width="60" height="60" fill="#167A4F" fill-opacity="0.4"/>
<rect x="240" y="360" width="60" height="60" fill="#167A4F" fill-opacity="0.4"/>
<rect x="360" y="360" width="60" height="60" fill="#167A4F" fill-opacity="0.4"/>
<rect x="480" y="360" width="60" height="60" fill="#167A4F" fill-opacity="0.4"/>
<rect x="600" y="360" width="60" height="60" fill="#167A4F" fill-opacity="0.4"/>
<rect x="60" y="420" width="60" height="60" fill="#167A4F" fill-opacity="0.4"/>
<rect x="180" y="420" width="60" height="60" fill="#167A4F" fill-opacity="0.4"/>
<rect x="300" y="420" width="60" height="60" fill="#167A4F" fill-opacity="0.4"/>
<rect x="420" y="420" width="60" height="60" fill="#167A4F" fill-opacity="0.4"/>
<rect x="540" y="420" width="60" height="60" fill="#167A4F" fill-opacity="0.4"/>
<rect x="660" y="420" width="60" height="60" fill="#167A4F" fill-opacity="0.4"/>
<rect y="480" width="60" height="60" fill="#167A4F" fill-opacity="0.4"/>
<rect x="120" y="480" width="60" height="60" fill="#167A4F" fill-opacity="0.4"/>
<rect x="240" y="480" width="60" height="60" fill="#167A4F" fill-opacity="0.4"/>
<rect x="360" y="480" width="60" height="60" fill="#167A4F" fill-opacity="0.4"/>
<rect x="480" y="480" width="60" height="60" fill="#167A4F" fill-opacity="0.4"/>
<rect x="600" y="480" width="60" height="60" fill="#167A4F" fill-opacity="0.4"/>
<rect x="60" y="540" width="60" height="60" fill="#167A4F" fill-opacity="0.4"/>
<rect x="180" y="540" width="60" height="60" fill="#167A4F" fill-opacity="0.4"/>
<rect x="300" y="540" width="60" height="60" fill="#167A4F" fill-opacity="0.4"/>
<rect x="420" y="540" width="60" height="60" fill="#167A4F" fill-opacity="0.4"/>
<rect x="540" y="540" width="60" height="60" fill="#167A4F" fill-opacity="0.4"/>
<rect x="660" y="540" width="60" height="60" fill="#167A4F" fill-opacity="0.4"/>
<rect y="600" width="60" height="60" fill="#167A4F" fill-opacity="0.4"/>
<rect x="120" y="600" width="60" height="60" fill="#167A4F" fill-opacity="0.4"/>
<rect x="240" y="600" width="60" height="60" fill="#167A4F" fill-opacity="0.4"/>
<rect x="360" y="600" width="60" height="60" fill="#167A4F" fill-opacity="0.4"/>
<rect x="480" y="600" width="60" height="60" fill="#167A4F" fill-opacity="0.4"/>
<rect x="600" y="600" width="60" height="60" fill="#167A4F" fill-opacity="0.4"/>
<rect x="60" y="660" width="60" height="60" fill="#167A4F" fill-opacity="0.4"/>
<rect x="180" y="660" width="60" height="60" fill="#167A4F" fill-opacity="0.4"/>
<rect x="300" y="660" width="60" height="60" fill="#167A4F" fill-opacity="0.4"/>
<rect x="420" y="660" width="60" height="60" fill="#167A4F" fill-opacity="0.4"/>
<rect x="540" y="660" width="60" height="60" fill="#167A4F" fill-opacity="0.4"/>
<rect x="660" y="660" width="60" height="60" fill="#167A4F" fill-opacity="0.4"/>
<rect y="720" width="60" height="60" fill="#167A4F" fill-opacity="0.4"/>
<rect x="120" y="720" width="60" height="60" fill="#167A4F" fill-opacity="0.4"/>
<rect x="240" y="720" width="60" height="60" fill="#167A4F" fill-opacity="0.4"/>
<rect x="360" y="720" width="60" height="60" fill="#167A4F" fill-opacity="0.4"/>
<rect x="480" y="720" width="60" height="60" fill="#167A4F" fill-opacity="0.4"/>
<rect x="600" y="720" width="60" height="60" fill="#167A4F" fill-opacity="0.4"/>
<rect x="60" y="780" width="60" height="60" fill="#167A4F" fill-opacity="0.4"/>
<rect x="180" y="780" width="60" height="60" fill="#167A4F" fill-opacity="0.4"/>
<rect x="300" y="780" width="60" height="60" fill="#167A4F" fill-opacity="0.4"/>
<rect x="420" y="780" width="60" height="60" fill="#167A4F" fill-opacity="0.4"/>
<rect x="540" y="780" width="60" height="60" fill="#167A4F" fill-opacity="0.4"/>
<rect x="660" y="780" width="60" height="60" fill="#167A4F" fill-opacity="0.4"/>
</g>
</g>
<defs>
<clipPath id="clip0">
<rect width="720" height="840" fill="white"/>
</clipPath>
</defs>
</svg>
