<?xml version="1.0" standalone="no"?>
<!DOCTYPE svg PUBLIC "-//W3C//DTD SVG 20010904//EN"
 "http://www.w3.org/TR/2001/REC-SVG-20010904/DTD/svg10.dtd">
<svg version="1.0" xmlns="http://www.w3.org/2000/svg"
 width="1056.000000pt" height="1056.000000pt" viewBox="0 0 1056.000000 1056.000000"
 preserveAspectRatio="xMidYMid meet">
<metadata>
Created by potrace 1.11, written by Peter Selinger 2001-2013
</metadata>
<g transform="translate(0.000000,1056.000000) scale(0.100000,-0.100000)"
fill="#000000" stroke="none">
<path d="M3466 8002 c-2 -1 -54 -5 -117 -7 -63 -3 -123 -6 -134 -9 -11 -2 -40
-7 -65 -10 -56 -8 -96 -16 -170 -36 -25 -7 -49 -13 -55 -14 -51 -10 -249 -106
-310 -151 -37 -28 -116 -96 -134 -118 -9 -10 -33 -37 -53 -60 -21 -22 -38 -44
-38 -48 0 -4 -6 -14 -13 -21 -10 -11 -36 -57 -78 -138 -22 -42 -61 -151 -74
-206 -2 -10 -9 -37 -14 -59 -55 -227 -57 -577 -5 -835 56 -273 185 -492 379
-645 28 -22 52 -43 53 -47 2 -5 12 -8 22 -8 10 0 22 -4 25 -10 8 -13 169 -90
188 -90 7 0 17 -3 21 -7 4 -5 11 -8 14 -9 4 0 27 -6 52 -13 25 -7 53 -15 63
-17 10 -2 26 -5 35 -8 15 -4 49 -10 132 -22 64 -9 158 -15 306 -19 155 -3 307
-13 349 -21 11 -2 36 -7 55 -10 33 -5 56 -9 90 -16 8 -2 21 -7 28 -11 6 -5 12
-6 12 -3 0 3 39 -8 86 -24 103 -35 260 -113 354 -175 37 -25 70 -45 74 -45 3
0 15 -8 25 -17 34 -31 50 -43 57 -43 4 0 36 -21 73 -47 36 -27 74 -52 83 -58
16 -10 227 -154 299 -204 56 -40 74 -51 153 -103 11 -7 29 -21 40 -30 11 -10
25 -18 32 -18 7 0 14 -4 16 -8 4 -12 185 -132 198 -132 5 0 10 -4 10 -10 0 -5
5 -10 10 -10 6 0 29 -12 53 -27 126 -81 354 -189 514 -242 69 -23 206 -61 239
-67 36 -6 66 -12 94 -19 14 -3 39 -8 55 -10 17 -1 71 -8 122 -14 143 -17 253
-23 446 -24 97 -1 178 -3 178 -6 1 -4 2 -72 3 -153 l1 -146 -38 -4 c-21 -2
-41 0 -43 4 -3 5 -10 6 -15 2 -9 -5 -199 -9 -224 -4 -5 1 -14 1 -20 0 -12 -2
-1006 -2 -1020 1 -5 1 -14 0 -20 -1 -12 -2 -206 -2 -220 0 -5 1 -14 2 -19 1
-12 -2 -529 -3 -541 -1 -5 2 -14 1 -20 0 -12 -2 -206 -2 -220 0 -5 1 -14 1
-20 0 -32 -7 -56 -6 -61 2 -3 4 -10 6 -15 2 -9 -5 -199 -9 -224 -4 -5 1 -14 1
-20 0 -11 -2 -537 -2 -545 1 -3 1 -9 0 -15 -1 -12 -2 -206 -2 -220 0 -5 1 -14
2 -19 1 -12 -2 -529 -3 -541 -1 -5 2 -14 1 -20 0 -12 -2 -206 -2 -220 0 -5 1
-14 1 -20 0 -32 -7 -56 -6 -61 2 -3 4 -10 6 -15 2 -9 -5 -199 -9 -224 -4 -5 1
-14 1 -20 0 -32 -7 -56 -6 -61 2 -3 4 -10 6 -15 2 -14 -8 -217 -9 -225 -1 -4
3 -14 2 -24 -3 -10 -5 -21 -6 -25 -2 -4 4 -3 -2 3 -14 6 -12 7 -26 2 -34 -5
-8 -6 -19 -2 -24 10 -17 9 -46 -2 -46 -6 0 -6 -4 1 -11 8 -8 8 -20 3 -35 -6
-14 -6 -26 0 -29 5 -3 6 -15 1 -28 -5 -12 -5 -31 -1 -42 4 -11 3 -25 -2 -32
-5 -7 -5 -14 1 -17 6 -4 7 -16 2 -29 -5 -12 -5 -31 -1 -42 4 -11 3 -28 -2 -37
-5 -10 -5 -18 -1 -18 9 0 8 -98 0 -107 -3 -3 -2 -16 3 -29 6 -14 6 -26 -1 -29
-5 -4 -6 -11 -2 -18 10 -16 10 -57 0 -57 -4 0 -3 -8 2 -18 6 -11 6 -24 0 -35
-6 -9 -6 -17 -2 -17 5 0 8 -12 7 -27 -1 -16 -3 -28 -4 -28 -1 0 -3 -10 -4 -22
-2 -13 0 -23 4 -23 8 0 6 -32 -3 -47 -4 -6 -3 -14 2 -18 6 -3 7 -15 2 -28 -5
-12 -5 -31 -1 -42 4 -11 3 -25 -2 -32 -5 -7 -5 -14 1 -17 7 -4 7 -15 1 -30 -5
-13 -7 -26 -5 -28 3 -2 6 -15 8 -29 l4 -24 2503 -2 c1666 -2 2509 1 2521 8 13
7 19 6 19 -1 0 -6 4 -9 8 -6 5 3 31 8 58 12 27 3 58 8 69 10 11 2 36 7 55 10
19 3 59 13 87 21 29 8 56 15 60 15 13 1 104 37 173 70 125 58 262 170 355 289
60 76 147 257 171 352 2 9 6 25 9 35 13 50 24 102 30 142 3 25 8 52 10 60 21
77 21 423 0 566 -2 16 -6 45 -9 64 -3 19 -15 71 -26 115 -26 98 -24 94 -38
128 -7 16 -12 32 -12 36 0 5 -17 41 -38 82 -34 65 -50 93 -112 184 -18 26
-125 135 -133 135 -3 0 -23 16 -44 35 -21 19 -43 35 -50 35 -6 0 -13 4 -15 8
-9 23 -254 125 -353 148 -42 10 -71 15 -97 17 -16 1 -28 4 -28 7 0 3 -12 5
-27 6 -16 0 -62 4 -103 8 -41 4 -151 9 -245 11 -168 4 -281 11 -320 19 -19 3
-122 19 -137 20 -3 1 -10 4 -14 9 -4 4 -17 7 -28 7 -18 0 -125 34 -176 57 -8
3 -17 7 -20 7 -16 4 -147 75 -215 118 -44 27 -89 55 -100 61 -11 7 -22 14 -25
17 -3 3 -54 39 -115 80 -60 40 -157 106 -215 145 -58 39 -154 105 -215 146
-60 40 -111 77 -113 81 -2 5 -7 8 -12 8 -4 0 -70 42 -147 93 -176 119 -271
176 -409 247 -92 47 -300 136 -339 145 -5 1 -17 4 -25 7 -8 3 -33 11 -55 17
-22 6 -64 17 -93 25 -29 8 -54 15 -57 16 -3 0 -7 1 -10 1 -3 1 -8 2 -12 3 -28
7 -120 19 -130 17 -7 -1 -13 2 -13 6 0 5 -11 8 -25 8 -14 -1 -50 2 -80 6 -90
12 -290 22 -462 23 -105 0 -163 4 -164 11 -6 53 -2 288 4 292 5 3 1131 5 2503
5 1876 0 2494 3 2491 11 -2 7 0 20 5 30 5 9 5 17 1 17 -4 0 -8 11 -8 25 0 14
4 25 9 25 5 0 4 6 -2 13 -5 6 -6 21 -2 32 4 11 4 30 -1 41 -4 12 -3 26 3 32 6
6 6 12 -1 16 -7 4 -7 15 -1 30 5 13 7 26 4 29 -9 8 -10 77 -2 77 5 0 4 8 -1
18 -6 11 -6 24 0 35 6 9 6 17 2 17 -9 0 -8 98 0 107 3 3 2 16 -3 29 -6 14 -6
26 1 29 5 4 6 11 2 18 -10 16 -10 57 0 57 4 0 3 8 -2 18 -6 11 -6 24 0 35 6 9
6 17 2 17 -10 0 -10 41 0 57 4 7 3 14 -2 18 -6 3 -7 15 -2 28 5 12 5 32 0 44
-5 13 -4 25 2 28 5 4 6 11 2 18 -10 16 -10 57 0 57 4 0 3 8 -2 18 -6 11 -6 24
0 35 6 9 6 17 2 17 -11 0 -9 42 2 60 6 10 4 12 -7 8 -8 -4 -21 -2 -28 2 -8 5
-21 5 -30 0 -9 -5 -22 -5 -30 0 -8 5 -21 5 -31 -1 -11 -6 -20 -5 -24 1 -3 6
-15 6 -30 0 -15 -6 -27 -6 -30 0 -3 6 -15 6 -30 0 -15 -6 -27 -6 -30 0 -3 6
-15 6 -30 0 -14 -5 -25 -6 -25 -2 0 4 -45 7 -100 7 -55 0 -100 -3 -100 -7 0
-4 -14 -3 -30 2 -17 5 -30 5 -30 0 0 -5 -13 -5 -30 0 -37 10 -40 10 -61 -1 -9
-4 -19 -5 -23 -2 -8 8 -131 7 -144 -1 -6 -3 -13 -2 -17 3 -4 7 -15 7 -30 1
-14 -5 -25 -6 -25 -2 0 6 -58 8 -85 2 -5 -1 -14 -1 -20 0 -24 5 -134 2 -143
-4 -6 -3 -13 -2 -17 3 -4 7 -15 7 -30 1 -14 -5 -25 -6 -25 -2 0 6 -58 8 -85 2
-5 -1 -14 -1 -20 0 -24 5 -134 2 -143 -4 -6 -3 -13 -2 -17 3 -4 7 -15 7 -30 1
-14 -5 -25 -6 -25 -2 0 6 -58 8 -85 2 -5 -1 -14 -1 -20 0 -24 5 -134 2 -143
-4 -6 -3 -13 -2 -17 3 -4 7 -15 7 -30 1 -14 -5 -25 -6 -25 -2 0 6 -58 8 -85 2
-5 -1 -14 -1 -20 0 -24 5 -134 2 -143 -4 -6 -3 -13 -2 -17 3 -4 7 -15 7 -30 1
-14 -5 -25 -6 -25 -2 0 6 -58 8 -85 2 -5 -1 -14 -1 -20 0 -24 5 -134 2 -143
-4 -6 -3 -13 -2 -17 3 -4 7 -15 7 -30 1 -14 -5 -25 -6 -25 -2 0 6 -58 8 -85 2
-5 -1 -14 -1 -20 0 -24 5 -134 2 -143 -4 -6 -3 -13 -2 -17 3 -4 7 -15 7 -30 1
-14 -5 -25 -6 -25 -2 0 6 -58 8 -85 2 -5 -1 -14 -1 -20 0 -24 5 -134 2 -143
-4 -6 -3 -13 -2 -17 3 -4 7 -15 7 -30 1 -14 -5 -25 -6 -25 -1 0 4 -20 5 -45 1
-25 -4 -48 -3 -51 1 -2 5 -16 4 -29 -1 -15 -6 -27 -6 -30 0 -3 5 -15 6 -28 1
-12 -5 -32 -5 -44 0 -13 5 -25 4 -28 -1 -3 -6 -15 -6 -30 0 -15 6 -27 6 -30 0
-3 -6 -15 -6 -30 0 -15 6 -27 6 -30 0 -4 -6 -13 -7 -24 -1 -10 6 -23 6 -31 1
-8 -5 -21 -5 -30 0 -9 5 -23 4 -32 -1 -10 -6 -19 -6 -23 0 -3 7 -15 7 -30 1
-15 -6 -27 -6 -30 0 -3 6 -15 6 -30 0 -14 -5 -25 -6 -25 -2 0 4 -25 7 -55 7
-30 0 -55 -3 -55 -7 0 -4 -11 -3 -25 2 -15 6 -27 6 -30 0 -3 -6 -15 -6 -30 0
-15 6 -27 6 -30 0 -4 -6 -13 -7 -24 -1 -10 6 -23 6 -31 1 -8 -5 -21 -5 -30 0
-9 5 -23 4 -32 -1 -10 -6 -19 -6 -23 0 -3 7 -15 7 -30 1 -15 -6 -27 -6 -30 0
-3 6 -15 6 -30 0 -14 -5 -25 -6 -25 -2 0 4 -25 7 -55 7 -30 0 -55 -3 -55 -7 0
-4 -11 -3 -25 2 -15 6 -27 6 -30 0 -3 -6 -15 -6 -30 0 -15 6 -27 6 -30 0 -4
-6 -13 -7 -24 -1 -10 6 -23 6 -31 1 -8 -5 -21 -5 -30 0 -9 5 -23 4 -32 -1 -10
-6 -19 -6 -23 0 -3 7 -15 7 -30 1 -15 -6 -27 -6 -30 0 -3 6 -15 6 -30 0 -14
-5 -25 -6 -25 -2 0 6 -108 11 -114 4z"/>
</g>
</svg>
